<?xml version="1.0" encoding="UTF-8"?>
<svg xmlns="http://www.w3.org/2000/svg" xmlns:xlink="http://www.w3.org/1999/xlink" width="318pt" height="180pt" viewBox="0 0 318 180" version="1.1">
<g id="surface1">
<path style=" stroke:none;fill-rule:nonzero;fill:rgb(75.294118%,94.117647%,94.901961%);fill-opacity:1;" d="M 154.066406 107.339844 C 146.699219 107.339844 139.933594 108.707031 134.4375 111 C 128.382812 107.316406 119.769531 104.996094 110.171875 104.996094 C 104.371094 104.996094 98.921875 105.847656 94.179688 107.324219 C 88.769531 103.796875 81.402344 101.265625 73 100.304688 C 68.515625 81.796875 40.550781 67.53125 6.625 67.53125 C 4.394531 67.53125 2.175781 67.597656 0.00390625 67.71875 L 0.00390625 143.28125 C 2.175781 143.398438 4.394531 143.46875 6.625 143.46875 C 19.25 143.46875 31.015625 141.457031 41.09375 138.023438 C 47.699219 141.128906 56.171875 142.996094 65.425781 142.996094 C 74.410156 142.996094 82.660156 141.222656 89.171875 138.277344 C 94.886719 140.929688 102.199219 142.523438 110.171875 142.523438 C 117.53125 142.523438 124.300781 141.15625 129.800781 138.859375 C 135.851562 142.546875 144.472656 144.871094 154.070312 144.871094 C 172.382812 144.871094 187.21875 136.464844 187.21875 126.097656 C 187.214844 115.738281 172.371094 107.339844 154.066406 107.339844 Z M 154.066406 107.339844 "/>
<path style=" stroke:none;fill-rule:nonzero;fill:rgb(61.176471%,84.705882%,88.627451%);fill-opacity:1;" d="M 154.066406 113.898438 C 146.699219 113.898438 139.933594 115.269531 134.4375 117.5625 C 128.382812 113.875 119.769531 111.558594 110.171875 111.558594 C 104.371094 111.558594 98.921875 112.40625 94.179688 113.882812 C 88.769531 110.355469 81.402344 107.824219 73 106.863281 C 68.515625 88.363281 40.550781 74.089844 6.625 74.089844 C 4.394531 74.089844 2.175781 74.160156 0.00390625 74.28125 L 0.00390625 149.839844 C 2.175781 149.964844 4.394531 150.03125 6.625 150.03125 C 19.25 150.03125 31.015625 148.019531 41.09375 144.589844 C 47.699219 147.691406 56.171875 149.558594 65.425781 149.558594 C 74.410156 149.558594 82.660156 147.785156 89.171875 144.839844 C 94.886719 147.496094 102.199219 149.089844 110.171875 149.089844 C 117.53125 149.089844 124.300781 147.714844 129.800781 145.421875 C 135.851562 149.109375 144.472656 151.433594 154.070312 151.433594 C 172.382812 151.433594 187.21875 143.027344 187.21875 132.664062 C 187.214844 122.296875 172.371094 113.898438 154.066406 113.898438 Z M 154.066406 113.898438 "/>
<path style=" stroke:none;fill-rule:nonzero;fill:rgb(75.294118%,94.117647%,94.901961%);fill-opacity:1;" d="M 163.933594 107.339844 C 171.300781 107.339844 178.066406 108.707031 183.5625 111 C 189.617188 107.316406 198.230469 104.996094 207.828125 104.996094 C 213.628906 104.996094 219.078125 105.847656 223.820312 107.324219 C 229.226562 103.796875 236.601562 101.265625 245 100.304688 C 249.480469 81.796875 277.449219 67.53125 311.378906 67.53125 C 313.605469 67.53125 315.820312 67.597656 317.996094 67.71875 L 317.996094 143.28125 C 315.820312 143.398438 313.605469 143.46875 311.378906 143.46875 C 298.75 143.46875 286.984375 141.457031 276.902344 138.023438 C 270.300781 141.128906 261.820312 142.996094 252.574219 142.996094 C 243.582031 142.996094 235.34375 141.222656 228.828125 138.277344 C 223.113281 140.929688 215.800781 142.523438 207.828125 142.523438 C 200.46875 142.523438 193.699219 141.15625 188.199219 138.859375 C 182.148438 142.546875 173.527344 144.871094 163.929688 144.871094 C 145.617188 144.871094 130.78125 136.464844 130.78125 126.097656 C 130.785156 115.738281 145.628906 107.339844 163.933594 107.339844 Z M 163.933594 107.339844 "/>
<path style=" stroke:none;fill-rule:nonzero;fill:rgb(61.176471%,84.705882%,88.627451%);fill-opacity:1;" d="M 163.933594 113.898438 C 171.300781 113.898438 178.066406 115.269531 183.5625 117.5625 C 189.617188 113.875 198.230469 111.558594 207.828125 111.558594 C 213.628906 111.558594 219.078125 112.40625 223.820312 113.882812 C 229.226562 110.355469 236.601562 107.824219 245 106.863281 C 249.480469 88.363281 277.449219 74.089844 311.378906 74.089844 C 313.605469 74.089844 315.820312 74.160156 317.996094 74.28125 L 317.996094 149.839844 C 315.820312 149.964844 313.605469 150.03125 311.378906 150.03125 C 298.75 150.03125 286.984375 148.019531 276.902344 144.589844 C 270.300781 147.691406 261.820312 149.558594 252.574219 149.558594 C 243.582031 149.558594 235.34375 147.785156 228.828125 144.839844 C 223.113281 147.496094 215.800781 149.089844 207.828125 149.089844 C 200.46875 149.089844 193.699219 147.714844 188.199219 145.421875 C 182.148438 149.109375 173.527344 151.433594 163.929688 151.433594 C 145.617188 151.433594 130.78125 143.027344 130.78125 132.664062 C 130.785156 122.296875 145.628906 113.898438 163.933594 113.898438 Z M 163.933594 113.898438 "/>
<path style=" stroke:none;fill-rule:nonzero;fill:rgb(49.019608%,65.882353%,11.372549%);fill-opacity:1;" d="M 318 116.367188 C 166.8125 117.140625 40.035156 143.390625 0 179.09375 L 318 179.09375 Z M 318 116.367188 "/>
<path style=" stroke:none;fill-rule:nonzero;fill:rgb(49.019608%,65.882353%,11.372549%);fill-opacity:1;" d="M 318 116.367188 C 166.8125 117.140625 40.035156 143.390625 0 179.09375 L 318 179.09375 Z M 318 116.367188 "/>
<path style=" stroke:none;fill-rule:nonzero;fill:rgb(17.647059%,44.705882%,8.627451%);fill-opacity:1;" d="M 318 116.367188 C 166.8125 117.140625 40.035156 143.390625 0 179.09375 L 318 179.09375 Z M 318 116.367188 "/>
<path style=" stroke:none;fill-rule:nonzero;fill:rgb(25.882353%,53.72549%,18.039216%);fill-opacity:1;" d="M 59.351562 179.09375 C 111.003906 154.878906 206.234375 137.6875 318 134.484375 L 318 125.332031 C 186.277344 127.542969 75.230469 149.117188 27.476562 179.09375 Z M 59.351562 179.09375 "/>
<path style=" stroke:none;fill-rule:nonzero;fill:rgb(25.882353%,53.72549%,18.039216%);fill-opacity:1;" d="M 318 153.339844 L 318 143.84375 C 226.835938 147.558594 147.828125 160.609375 96.363281 179.097656 L 140 179.097656 C 186.734375 166.242188 248.402344 157.042969 318 153.339844 Z M 318 153.339844 "/>
<path style=" stroke:none;fill-rule:nonzero;fill:rgb(25.882353%,53.72549%,18.039216%);fill-opacity:1;" d="M 318 172.976562 L 318 163.058594 C 271.53125 166.128906 228.921875 171.660156 192.453125 179.09375 L 260.625 179.09375 C 278.84375 176.628906 298.007812 174.5625 318 172.976562 Z M 318 172.976562 "/>
<path style=" stroke:none;fill-rule:nonzero;fill:rgb(49.019608%,65.882353%,11.372549%);fill-opacity:1;" d="M 0 116.367188 C 151.1875 117.140625 277.957031 143.390625 318 179.09375 L 0 179.09375 Z M 0 116.367188 "/>
<path style=" stroke:none;fill-rule:nonzero;fill:rgb(58.823529%,77.647059%,6.27451%);fill-opacity:1;" d="M 258.640625 179.09375 C 206.992188 154.882812 111.761719 137.6875 0 134.488281 L 0 125.335938 C 131.71875 127.546875 242.761719 149.121094 290.523438 179.097656 L 258.640625 179.097656 Z M 258.640625 179.09375 "/>
<path style=" stroke:none;fill-rule:nonzero;fill:rgb(58.823529%,77.647059%,6.27451%);fill-opacity:1;" d="M 0 153.339844 L 0 143.84375 C 91.164062 147.558594 170.167969 160.609375 221.640625 179.097656 L 177.996094 179.097656 C 131.265625 166.242188 69.589844 157.042969 0 153.339844 Z M 0 153.339844 "/>
<path style=" stroke:none;fill-rule:nonzero;fill:rgb(58.823529%,77.647059%,6.27451%);fill-opacity:1;" d="M 0 172.976562 L 0 163.058594 C 46.464844 166.128906 89.070312 171.660156 125.546875 179.09375 L 57.367188 179.09375 C 39.148438 176.628906 19.992188 174.5625 0 172.976562 Z M 0 172.976562 "/>
<path style=" stroke:none;fill-rule:nonzero;fill:rgb(95.686275%,61.176471%,0%);fill-opacity:1;" d="M 223.589844 52.53125 C 223.589844 72.722656 194.671875 89.089844 159 89.089844 C 123.328125 89.089844 94.410156 72.722656 94.410156 52.53125 C 94.410156 32.339844 123.328125 15.96875 159 15.96875 C 194.671875 15.96875 223.589844 32.339844 223.589844 52.53125 Z M 223.589844 52.53125 "/>
<path style=" stroke:none;fill-rule:nonzero;fill:rgb(94.901961%,54.117647%,0%);fill-opacity:1;" d="M 223.589844 52.53125 C 223.589844 72.726562 194.679688 89.09375 159 89.09375 C 123.316406 89.09375 94.40625 72.722656 94.40625 52.53125 "/>
<path style=" stroke:none;fill-rule:nonzero;fill:rgb(94.901961%,54.117647%,0%);fill-opacity:1;" d="M 209.59375 25.253906 C 209.152344 25.003906 208.871094 24.652344 208.871094 24.257812 C 208.871094 22.132812 210.332031 20.128906 212.992188 18.625 C 215.644531 17.121094 219.1875 16.296875 222.945312 16.296875 C 224.316406 16.296875 225.425781 16.921875 225.425781 17.699219 C 225.425781 18.480469 224.3125 19.105469 222.945312 19.105469 C 220.507812 19.105469 218.226562 19.644531 216.507812 20.613281 C 214.789062 21.585938 213.839844 22.882812 213.839844 24.257812 C 213.839844 25.035156 212.726562 25.667969 211.351562 25.667969 C 210.664062 25.667969 210.050781 25.511719 209.59375 25.253906 Z M 209.59375 25.253906 "/>
<path style=" stroke:none;fill-rule:nonzero;fill:rgb(94.901961%,54.117647%,0%);fill-opacity:1;" d="M 108.402344 79.8125 C 108.847656 80.066406 109.125 80.421875 109.125 80.808594 C 109.136719 82.929688 107.667969 84.9375 105.011719 86.4375 C 102.355469 87.945312 98.8125 88.773438 95.058594 88.773438 C 93.6875 88.773438 92.570312 88.148438 92.570312 87.367188 C 92.570312 86.59375 93.691406 85.960938 95.058594 85.960938 C 97.5 85.960938 99.777344 85.425781 101.5 84.453125 C 103.207031 83.480469 104.160156 82.1875 104.160156 80.8125 C 104.160156 80.03125 105.269531 79.40625 106.648438 79.40625 C 107.335938 79.402344 107.945312 79.5625 108.402344 79.8125 Z M 108.402344 79.8125 "/>
<path style=" stroke:none;fill-rule:nonzero;fill:rgb(94.901961%,54.117647%,0%);fill-opacity:1;" d="M 160.703125 12.992188 C 160.0625 12.992188 159.421875 12.855469 158.945312 12.578125 C 156.285156 11.078125 154.824219 9.074219 154.824219 6.949219 C 154.824219 4.820312 156.285156 2.816406 158.945312 1.316406 C 159.914062 0.765625 161.488281 0.765625 162.457031 1.316406 C 163.433594 1.863281 163.433594 2.753906 162.457031 3.304688 C 160.738281 4.277344 159.796875 5.578125 159.796875 6.949219 C 159.796875 8.324219 160.738281 9.617188 162.457031 10.589844 C 163.433594 11.140625 163.433594 12.03125 162.457031 12.578125 C 161.96875 12.855469 161.335938 12.992188 160.703125 12.992188 Z M 160.703125 12.992188 "/>
<path style=" stroke:none;fill-rule:nonzero;fill:rgb(94.901961%,54.117647%,0%);fill-opacity:1;" d="M 157.296875 92.074219 C 157.9375 92.074219 158.574219 92.210938 159.054688 92.488281 C 161.714844 93.988281 163.179688 95.992188 163.179688 98.117188 C 163.179688 100.246094 161.714844 102.25 159.054688 103.753906 C 158.085938 104.300781 156.507812 104.300781 155.539062 103.753906 C 154.566406 103.207031 154.566406 102.316406 155.539062 101.761719 C 157.257812 100.785156 158.203125 99.492188 158.203125 98.117188 C 158.203125 96.742188 157.257812 95.445312 155.539062 94.472656 C 154.566406 93.925781 154.566406 93.03125 155.539062 92.488281 C 156.03125 92.210938 156.667969 92.074219 157.296875 92.074219 Z M 157.296875 92.074219 "/>
<path style=" stroke:none;fill-rule:nonzero;fill:rgb(94.901961%,54.117647%,0%);fill-opacity:1;" d="M 228.851562 53.492188 C 228.851562 53.132812 229.09375 52.777344 229.582031 52.503906 C 232.230469 50.996094 235.78125 50.167969 239.53125 50.167969 C 243.296875 50.167969 246.824219 50.996094 249.484375 52.503906 C 250.449219 53.050781 250.457031 53.941406 249.484375 54.492188 C 248.511719 55.039062 246.941406 55.039062 245.976562 54.492188 C 244.253906 53.515625 241.96875 52.980469 239.53125 52.980469 C 237.097656 52.980469 234.816406 53.515625 233.097656 54.492188 C 232.125 55.039062 230.554688 55.039062 229.582031 54.492188 C 229.097656 54.214844 228.851562 53.859375 228.851562 53.492188 Z M 228.851562 53.492188 "/>
<path style=" stroke:none;fill-rule:nonzero;fill:rgb(94.901961%,54.117647%,0%);fill-opacity:1;" d="M 89.144531 51.574219 C 89.144531 51.933594 88.902344 52.296875 88.417969 52.570312 C 85.769531 54.074219 82.222656 54.898438 78.472656 54.898438 C 74.699219 54.898438 71.175781 54.074219 68.515625 52.570312 C 67.542969 52.015625 67.542969 51.125 68.515625 50.578125 C 69.484375 50.03125 71.050781 50.03125 72.027344 50.578125 C 73.75 51.550781 76.03125 52.089844 78.472656 52.089844 C 80.894531 52.089844 83.175781 51.550781 84.894531 50.578125 C 85.867188 50.03125 87.445312 50.03125 88.417969 50.578125 C 88.902344 50.855469 89.144531 51.214844 89.144531 51.574219 Z M 89.144531 51.574219 "/>
<path style=" stroke:none;fill-rule:nonzero;fill:rgb(94.901961%,54.117647%,0%);fill-opacity:1;" d="M 207.199219 81.171875 C 207.644531 80.914062 208.265625 80.761719 208.9375 80.761719 C 212.707031 80.757812 216.246094 81.59375 218.902344 83.09375 C 221.5625 84.597656 223.027344 86.605469 223.027344 88.726562 C 223.027344 89.503906 221.914062 90.128906 220.546875 90.128906 C 219.167969 90.128906 218.0625 89.507812 218.0625 88.726562 C 218.066406 87.347656 217.105469 86.058594 215.386719 85.082031 C 213.671875 84.109375 211.394531 83.570312 208.9375 83.570312 C 207.570312 83.570312 206.457031 82.945312 206.457031 82.167969 C 206.46875 81.78125 206.746094 81.429688 207.199219 81.171875 Z M 207.199219 81.171875 "/>
<path style=" stroke:none;fill-rule:nonzero;fill:rgb(94.901961%,54.117647%,0%);fill-opacity:1;" d="M 110.796875 23.894531 C 110.355469 24.144531 109.730469 24.304688 109.054688 24.304688 C 105.289062 24.3125 101.75 23.480469 99.097656 21.976562 C 96.425781 20.46875 94.972656 18.472656 94.972656 16.339844 C 94.972656 15.558594 96.082031 14.933594 97.453125 14.933594 C 98.820312 14.933594 99.9375 15.558594 99.9375 16.339844 C 99.9375 17.71875 100.882812 19.011719 102.605469 19.992188 C 104.320312 20.960938 106.605469 21.496094 109.054688 21.492188 C 110.417969 21.492188 111.53125 22.128906 111.53125 22.898438 C 111.53125 23.289062 111.242188 23.640625 110.796875 23.894531 Z M 110.796875 23.894531 "/>
<path style=" stroke:none;fill-rule:nonzero;fill:rgb(94.901961%,54.117647%,0%);fill-opacity:1;" d="M 125.539062 17.8125 C 124.988281 17.992188 124.316406 18.050781 123.644531 17.949219 C 120.019531 17.402344 116.984375 16.082031 115.105469 14.238281 C 113.222656 12.394531 112.714844 10.246094 113.699219 8.191406 C 114.042969 7.4375 115.417969 6.992188 116.738281 7.195312 C 118.070312 7.394531 118.851562 8.167969 118.492188 8.917969 C 117.859375 10.25 118.195312 11.640625 119.402344 12.835938 C 120.613281 14.023438 122.578125 14.878906 124.9375 15.238281 C 126.257812 15.433594 127.046875 16.210938 126.699219 16.953125 C 126.519531 17.328125 126.085938 17.632812 125.539062 17.8125 Z M 125.539062 17.8125 "/>
<path style=" stroke:none;fill-rule:nonzero;fill:rgb(94.901961%,54.117647%,0%);fill-opacity:1;" d="M 192.457031 87.257812 C 192.996094 87.078125 193.679688 87.015625 194.328125 87.121094 C 197.960938 87.667969 201 88.988281 202.878906 90.832031 C 204.757812 92.675781 205.269531 94.820312 204.292969 96.878906 C 203.929688 97.625 202.566406 98.074219 201.246094 97.867188 C 199.925781 97.664062 199.128906 96.898438 199.492188 96.144531 C 200.128906 94.8125 199.792969 93.425781 198.582031 92.234375 C 197.359375 91.042969 195.410156 90.191406 193.058594 89.835938 C 191.71875 89.636719 190.9375 88.863281 191.289062 88.113281 C 191.476562 87.738281 191.90625 87.4375 192.457031 87.257812 Z M 192.457031 87.257812 "/>
<path style=" stroke:none;fill-rule:nonzero;fill:rgb(94.901961%,54.117647%,0%);fill-opacity:1;" d="M 220.339844 33.597656 C 220.03125 33.289062 219.921875 32.90625 220.101562 32.53125 C 221.066406 30.476562 223.402344 28.757812 226.652344 27.695312 C 229.914062 26.628906 233.707031 26.347656 237.335938 26.898438 C 238.660156 27.105469 239.449219 27.871094 239.097656 28.621094 C 238.730469 29.371094 237.367188 29.820312 236.050781 29.613281 C 233.699219 29.253906 231.242188 29.441406 229.140625 30.128906 C 227.023438 30.816406 225.519531 31.925781 224.894531 33.265625 C 224.539062 34.015625 223.179688 34.460938 221.851562 34.253906 C 221.183594 34.152344 220.667969 33.90625 220.339844 33.597656 Z M 220.339844 33.597656 "/>
<path style=" stroke:none;fill-rule:nonzero;fill:rgb(94.901961%,54.117647%,0%);fill-opacity:1;" d="M 97.652344 71.476562 C 97.976562 71.78125 98.066406 72.167969 97.894531 72.542969 C 96.929688 74.59375 94.589844 76.316406 91.351562 77.375 C 88.074219 78.4375 84.289062 78.722656 80.660156 78.167969 C 79.324219 77.972656 78.542969 77.203125 78.914062 76.449219 C 79.265625 75.703125 80.617188 75.253906 81.953125 75.453125 C 84.296875 75.816406 86.757812 75.632812 88.871094 74.9375 C 90.96875 74.253906 92.472656 73.144531 93.097656 71.8125 C 93.453125 71.058594 94.804688 70.613281 96.148438 70.816406 C 96.804688 70.921875 97.332031 71.167969 97.652344 71.476562 Z M 97.652344 71.476562 "/>
<path style=" stroke:none;fill-rule:nonzero;fill:rgb(94.901961%,54.117647%,0%);fill-opacity:1;" d="M 226.027344 63.695312 C 226.183594 63.351562 226.59375 63.039062 227.191406 62.847656 C 230.4375 61.78125 234.234375 61.496094 237.875 62.046875 C 241.496094 62.601562 244.542969 63.921875 246.414062 65.761719 C 247.089844 66.433594 246.703125 67.296875 245.5 67.6875 C 244.3125 68.070312 242.796875 67.84375 242.109375 67.167969 C 240.898438 65.972656 238.9375 65.128906 236.570312 64.765625 C 234.226562 64.40625 231.765625 64.589844 229.671875 65.285156 C 228.476562 65.671875 226.964844 65.441406 226.277344 64.769531 C 225.945312 64.429688 225.871094 64.042969 226.027344 63.695312 Z M 226.027344 63.695312 "/>
<path style=" stroke:none;fill-rule:nonzero;fill:rgb(94.901961%,54.117647%,0%);fill-opacity:1;" d="M 91.953125 41.371094 C 91.800781 41.71875 91.394531 42.03125 90.800781 42.226562 C 87.550781 43.296875 83.746094 43.574219 80.136719 43.023438 C 76.488281 42.476562 73.457031 41.15625 71.574219 39.308594 C 70.882812 38.632812 71.296875 37.777344 72.488281 37.390625 C 73.671875 37.003906 75.191406 37.222656 75.882812 37.902344 C 77.101562 39.097656 79.054688 39.949219 81.421875 40.308594 C 83.761719 40.664062 86.214844 40.480469 88.316406 39.789062 C 89.507812 39.40625 91.023438 39.632812 91.703125 40.304688 C 92.050781 40.644531 92.117188 41.023438 91.953125 41.371094 Z M 91.953125 41.371094 "/>
<path style=" stroke:none;fill-rule:nonzero;fill:rgb(94.901961%,54.117647%,0%);fill-opacity:1;" d="M 99.347656 31.933594 C 99.03125 32.242188 98.503906 32.480469 97.832031 32.589844 C 94.210938 33.140625 90.414062 32.859375 87.164062 31.792969 C 83.898438 30.726562 81.570312 29.011719 80.59375 26.953125 C 80.238281 26.203125 81.023438 25.429688 82.347656 25.234375 C 83.683594 25.027344 85.039062 25.476562 85.386719 26.226562 C 86.023438 27.558594 87.53125 28.671875 89.644531 29.359375 C 91.738281 30.046875 94.195312 30.230469 96.554688 29.875 C 97.871094 29.671875 99.230469 30.121094 99.601562 30.867188 C 99.773438 31.238281 99.65625 31.621094 99.347656 31.933594 Z M 99.347656 31.933594 "/>
<path style=" stroke:none;fill-rule:nonzero;fill:rgb(94.901961%,54.117647%,0%);fill-opacity:1;" d="M 218.640625 73.136719 C 218.957031 72.828125 219.488281 72.582031 220.148438 72.488281 C 223.78125 71.929688 227.574219 72.214844 230.828125 73.277344 C 234.089844 74.34375 236.417969 76.0625 237.386719 78.117188 C 237.75 78.871094 236.960938 79.644531 235.628906 79.839844 C 234.308594 80.035156 232.949219 79.597656 232.597656 78.84375 C 231.945312 77.511719 230.441406 76.402344 228.339844 75.714844 C 226.238281 75.023438 223.78125 74.84375 221.4375 75.195312 C 220.109375 75.402344 218.753906 74.957031 218.382812 74.210938 C 218.210938 73.832031 218.324219 73.449219 218.640625 73.136719 Z M 218.640625 73.136719 "/>
<path style=" stroke:none;fill-rule:nonzero;fill:rgb(94.901961%,54.117647%,0%);fill-opacity:1;" d="M 195.386719 18.773438 C 194.847656 18.59375 194.421875 18.296875 194.246094 17.921875 C 193.265625 15.867188 193.761719 13.71875 195.652344 11.875 C 197.535156 10.03125 200.558594 8.714844 204.1875 8.164062 C 205.515625 7.960938 206.882812 8.40625 207.238281 9.15625 C 207.570312 9.914062 206.800781 10.679688 205.484375 10.878906 C 203.128906 11.234375 201.160156 12.089844 199.949219 13.285156 C 198.722656 14.476562 198.390625 15.867188 199.03125 17.195312 C 199.386719 17.945312 198.613281 18.71875 197.273438 18.917969 C 196.609375 19.019531 195.949219 18.949219 195.386719 18.773438 Z M 195.386719 18.773438 "/>
<path style=" stroke:none;fill-rule:nonzero;fill:rgb(94.901961%,54.117647%,0%);fill-opacity:1;" d="M 122.59375 86.300781 C 123.144531 86.476562 123.570312 86.785156 123.742188 87.15625 C 124.726562 89.210938 124.230469 91.359375 122.347656 93.195312 C 120.464844 95.046875 117.4375 96.363281 113.800781 96.910156 C 112.472656 97.113281 111.105469 96.675781 110.761719 95.917969 C 110.402344 95.171875 111.1875 94.402344 112.515625 94.199219 C 114.863281 93.839844 116.832031 92.988281 118.058594 91.796875 C 119.265625 90.605469 119.59375 89.21875 118.957031 87.886719 C 118.609375 87.140625 119.378906 86.371094 120.722656 86.164062 C 121.378906 86.0625 122.050781 86.125 122.59375 86.300781 Z M 122.59375 86.300781 "/>
<path style=" stroke:none;fill-rule:nonzero;fill:rgb(94.901961%,54.117647%,0%);fill-opacity:1;" d="M 226.910156 43.230469 C 226.738281 42.886719 226.804688 42.5 227.148438 42.164062 C 229.027344 40.324219 232.066406 39.007812 235.703125 38.453125 C 239.335938 37.90625 243.125 38.1875 246.382812 39.25 C 247.558594 39.644531 247.984375 40.496094 247.28125 41.175781 C 246.609375 41.847656 245.089844 42.074219 243.894531 41.6875 C 241.792969 40.996094 239.347656 40.820312 236.992188 41.167969 C 234.644531 41.53125 232.679688 42.378906 231.453125 43.578125 C 230.769531 44.25 229.257812 44.476562 228.058594 44.085938 C 227.472656 43.894531 227.066406 43.574219 226.910156 43.230469 Z M 226.910156 43.230469 "/>
<path style=" stroke:none;fill-rule:nonzero;fill:rgb(94.901961%,54.117647%,0%);fill-opacity:1;" d="M 91.085938 61.839844 C 91.246094 62.1875 91.167969 62.574219 90.828125 62.910156 C 88.957031 64.753906 85.910156 66.074219 82.300781 66.617188 C 78.648438 67.175781 74.863281 66.890625 71.605469 65.824219 C 70.417969 65.433594 70.007812 64.578125 70.710938 63.90625 C 71.382812 63.230469 72.894531 62.996094 74.105469 63.386719 C 76.199219 64.078125 78.640625 64.265625 81.007812 63.902344 C 83.347656 63.550781 85.316406 62.699219 86.527344 61.5 C 87.203125 60.832031 88.738281 60.597656 89.921875 60.984375 C 90.515625 61.183594 90.910156 61.496094 91.085938 61.839844 Z M 91.085938 61.839844 "/>
<path style=" stroke:none;fill-rule:nonzero;fill:rgb(94.901961%,54.117647%,0%);fill-opacity:1;" d="M 99.347656 31.933594 C 99.03125 32.242188 98.503906 32.480469 97.832031 32.589844 C 94.210938 33.140625 90.414062 32.859375 87.164062 31.792969 C 83.898438 30.726562 81.570312 29.011719 80.59375 26.953125 C 80.238281 26.203125 81.023438 25.429688 82.347656 25.234375 C 83.683594 25.027344 85.039062 25.476562 85.386719 26.226562 C 86.023438 27.558594 87.53125 28.671875 89.644531 29.359375 C 91.738281 30.046875 94.195312 30.230469 96.554688 29.875 C 97.871094 29.671875 99.230469 30.121094 99.601562 30.867188 C 99.773438 31.238281 99.65625 31.621094 99.347656 31.933594 Z M 99.347656 31.933594 "/>
<path style=" stroke:none;fill-rule:nonzero;fill:rgb(94.901961%,54.117647%,0%);fill-opacity:1;" d="M 218.640625 73.136719 C 218.957031 72.828125 219.488281 72.582031 220.148438 72.488281 C 223.78125 71.929688 227.574219 72.214844 230.828125 73.277344 C 234.089844 74.34375 236.417969 76.0625 237.386719 78.117188 C 237.75 78.871094 236.960938 79.644531 235.628906 79.839844 C 234.308594 80.035156 232.949219 79.597656 232.597656 78.84375 C 231.945312 77.511719 230.441406 76.402344 228.339844 75.714844 C 226.238281 75.023438 223.78125 74.84375 221.4375 75.195312 C 220.109375 75.402344 218.753906 74.957031 218.382812 74.210938 C 218.210938 73.832031 218.324219 73.449219 218.640625 73.136719 Z M 218.640625 73.136719 "/>
<path style=" stroke:none;fill-rule:nonzero;fill:rgb(94.901961%,54.117647%,0%);fill-opacity:1;" d="M 195.386719 18.773438 C 194.847656 18.59375 194.421875 18.296875 194.246094 17.921875 C 193.265625 15.867188 193.761719 13.71875 195.652344 11.875 C 197.535156 10.03125 200.558594 8.714844 204.1875 8.164062 C 205.515625 7.960938 206.882812 8.40625 207.238281 9.15625 C 207.570312 9.914062 206.800781 10.679688 205.484375 10.878906 C 203.128906 11.234375 201.160156 12.089844 199.949219 13.285156 C 198.722656 14.476562 198.390625 15.867188 199.03125 17.195312 C 199.386719 17.945312 198.613281 18.71875 197.273438 18.917969 C 196.609375 19.019531 195.949219 18.949219 195.386719 18.773438 Z M 195.386719 18.773438 "/>
<path style=" stroke:none;fill-rule:nonzero;fill:rgb(94.901961%,54.117647%,0%);fill-opacity:1;" d="M 122.59375 86.300781 C 123.144531 86.476562 123.570312 86.785156 123.742188 87.15625 C 124.726562 89.210938 124.230469 91.359375 122.347656 93.195312 C 120.464844 95.046875 117.4375 96.363281 113.800781 96.910156 C 112.472656 97.113281 111.105469 96.675781 110.761719 95.917969 C 110.402344 95.171875 111.1875 94.402344 112.515625 94.199219 C 114.863281 93.839844 116.832031 92.988281 118.058594 91.796875 C 119.265625 90.605469 119.59375 89.21875 118.957031 87.886719 C 118.609375 87.140625 119.378906 86.371094 120.722656 86.164062 C 121.378906 86.0625 122.050781 86.125 122.59375 86.300781 Z M 122.59375 86.300781 "/>
<path style=" stroke:none;fill-rule:nonzero;fill:rgb(94.901961%,54.117647%,0%);fill-opacity:1;" d="M 226.910156 43.230469 C 226.738281 42.886719 226.804688 42.5 227.148438 42.164062 C 229.027344 40.324219 232.066406 39.007812 235.703125 38.453125 C 239.335938 37.90625 243.125 38.1875 246.382812 39.25 C 247.558594 39.644531 247.984375 40.496094 247.28125 41.175781 C 246.609375 41.847656 245.089844 42.074219 243.894531 41.6875 C 241.792969 40.996094 239.347656 40.820312 236.992188 41.167969 C 234.644531 41.53125 232.679688 42.378906 231.453125 43.578125 C 230.769531 44.25 229.257812 44.476562 228.058594 44.085938 C 227.472656 43.894531 227.066406 43.574219 226.910156 43.230469 Z M 226.910156 43.230469 "/>
<path style=" stroke:none;fill-rule:nonzero;fill:rgb(94.901961%,54.117647%,0%);fill-opacity:1;" d="M 91.085938 61.839844 C 91.246094 62.1875 91.167969 62.574219 90.828125 62.910156 C 88.957031 64.753906 85.910156 66.074219 82.300781 66.617188 C 78.648438 67.175781 74.863281 66.890625 71.605469 65.824219 C 70.417969 65.433594 70.007812 64.578125 70.710938 63.90625 C 71.382812 63.230469 72.894531 62.996094 74.105469 63.386719 C 76.199219 64.078125 78.640625 64.265625 81.007812 63.902344 C 83.347656 63.550781 85.316406 62.699219 86.527344 61.5 C 87.203125 60.832031 88.738281 60.597656 89.921875 60.984375 C 90.515625 61.183594 90.910156 61.496094 91.085938 61.839844 Z M 91.085938 61.839844 "/>
<path style=" stroke:none;fill-rule:nonzero;fill:rgb(94.901961%,54.117647%,0%);fill-opacity:1;" d="M 97.65625 71.480469 C 97.976562 71.789062 98.066406 72.171875 97.894531 72.550781 C 96.917969 74.605469 94.589844 76.324219 91.347656 77.382812 C 88.082031 78.445312 84.296875 78.730469 80.660156 78.179688 C 79.324219 77.980469 78.546875 77.207031 78.90625 76.460938 C 79.261719 75.703125 80.613281 75.261719 81.941406 75.460938 C 84.296875 75.820312 86.753906 75.632812 88.859375 74.945312 C 90.953125 74.257812 92.46875 73.148438 93.097656 71.8125 C 93.449219 71.066406 94.816406 70.625 96.148438 70.8125 C 96.804688 70.921875 97.339844 71.167969 97.65625 71.480469 Z M 97.65625 71.480469 "/>
<path style=" stroke:none;fill-rule:nonzero;fill:rgb(94.901961%,54.117647%,0%);fill-opacity:1;" d="M 220.339844 33.605469 C 220.03125 33.292969 219.914062 32.90625 220.101562 32.535156 C 221.066406 30.476562 223.410156 28.761719 226.648438 27.703125 C 229.90625 26.632812 233.707031 26.351562 237.335938 26.902344 C 238.660156 27.105469 239.449219 27.875 239.085938 28.625 C 238.730469 29.371094 237.367188 29.824219 236.050781 29.613281 C 233.679688 29.265625 231.238281 29.453125 229.128906 30.136719 C 227.023438 30.824219 225.519531 31.9375 224.894531 33.265625 C 224.550781 34.011719 223.179688 34.457031 221.851562 34.261719 C 221.183594 34.15625 220.667969 33.910156 220.339844 33.605469 Z M 220.339844 33.605469 "/>
<path style=" stroke:none;fill-rule:nonzero;fill:rgb(94.901961%,54.117647%,0%);fill-opacity:1;" d="M 125.539062 17.824219 C 124.996094 17.992188 124.316406 18.058594 123.667969 17.953125 C 120.03125 17.40625 116.988281 16.085938 115.117188 14.238281 C 113.234375 12.390625 112.726562 10.25 113.699219 8.195312 C 114.070312 7.445312 115.429688 7 116.746094 7.195312 C 118.082031 7.410156 118.859375 8.175781 118.5 8.921875 C 117.871094 10.25 118.203125 11.640625 119.425781 12.832031 C 120.625 14.027344 122.589844 14.886719 124.949219 15.242188 C 126.28125 15.4375 127.066406 16.207031 126.707031 16.960938 C 126.519531 17.34375 126.085938 17.632812 125.539062 17.824219 Z M 125.539062 17.824219 "/>
<path style=" stroke:none;fill-rule:nonzero;fill:rgb(94.901961%,54.117647%,0%);fill-opacity:1;" d="M 192.457031 87.261719 C 192.996094 87.082031 193.679688 87.027344 194.328125 87.128906 C 197.972656 87.671875 201.011719 88.988281 202.878906 90.832031 C 204.757812 92.679688 205.269531 94.824219 204.285156 96.878906 C 203.929688 97.632812 202.578125 98.082031 201.246094 97.875 C 199.925781 97.679688 199.128906 96.90625 199.492188 96.15625 C 200.128906 94.824219 199.8125 93.433594 198.589844 92.234375 C 197.375 91.050781 195.410156 90.199219 193.058594 89.84375 C 191.734375 89.644531 190.9375 88.875 191.296875 88.117188 C 191.476562 87.746094 191.914062 87.445312 192.457031 87.261719 Z M 192.457031 87.261719 "/>
<path style=" stroke:none;fill-rule:nonzero;fill:rgb(94.901961%,54.117647%,0%);fill-opacity:1;" d="M 178.726562 14.59375 C 178.101562 14.507812 177.558594 14.28125 177.222656 13.941406 C 175.335938 12.097656 174.832031 9.953125 175.808594 7.894531 C 176.78125 5.839844 179.105469 4.121094 182.367188 3.054688 C 183.558594 2.679688 185.074219 2.898438 185.765625 3.578125 C 186.445312 4.246094 186.035156 5.101562 184.84375 5.492188 C 182.734375 6.179688 181.230469 7.289062 180.597656 8.625 C 179.972656 9.957031 180.289062 11.34375 181.523438 12.539062 C 182.203125 13.21875 181.792969 14.070312 180.597656 14.460938 C 180.007812 14.644531 179.316406 14.6875 178.726562 14.59375 Z M 178.726562 14.59375 "/>
<path style=" stroke:none;fill-rule:nonzero;fill:rgb(94.901961%,54.117647%,0%);fill-opacity:1;" d="M 139.285156 90.484375 C 139.878906 90.578125 140.441406 90.804688 140.792969 91.144531 C 142.664062 92.988281 143.167969 95.140625 142.191406 97.179688 C 141.222656 99.25 138.890625 100.964844 135.628906 102.023438 C 134.441406 102.417969 132.929688 102.1875 132.242188 101.507812 C 131.554688 100.839844 131.953125 99.976562 133.148438 99.582031 C 135.257812 98.902344 136.769531 97.796875 137.390625 96.457031 C 138.027344 95.132812 137.699219 93.738281 136.476562 92.550781 C 135.800781 91.882812 136.203125 91.019531 137.390625 90.632812 C 137.980469 90.433594 138.664062 90.394531 139.285156 90.484375 Z M 139.285156 90.484375 "/>
<path style=" stroke:none;fill-rule:nonzero;fill:rgb(94.901961%,54.117647%,0%);fill-opacity:1;" d="M 122.609375 86.300781 C 123.152344 86.484375 123.574219 86.785156 123.75 87.164062 C 124.726562 89.21875 124.230469 91.363281 122.347656 93.203125 C 120.464844 95.050781 117.441406 96.363281 113.808594 96.917969 C 112.476562 97.121094 111.121094 96.671875 110.761719 95.933594 C 110.402344 95.171875 111.191406 94.40625 112.503906 94.207031 C 114.871094 93.847656 116.835938 92.992188 118.050781 91.800781 C 119.265625 90.613281 119.59375 89.222656 118.957031 87.890625 C 118.609375 87.148438 119.398438 86.375 120.722656 86.160156 C 121.378906 86.0625 122.0625 86.125 122.609375 86.300781 Z M 122.609375 86.300781 "/>
<path style=" stroke:none;fill-rule:nonzero;fill:rgb(94.901961%,54.117647%,0%);fill-opacity:1;" d="M 195.40625 18.777344 C 194.855469 18.597656 194.421875 18.296875 194.253906 17.921875 C 193.269531 15.867188 193.78125 13.71875 195.640625 11.886719 C 197.523438 10.039062 200.554688 8.722656 204.1875 8.167969 C 205.515625 7.964844 206.894531 8.414062 207.230469 9.164062 C 207.574219 9.914062 206.804688 10.6875 205.484375 10.882812 C 203.125 11.246094 201.167969 12.105469 199.949219 13.289062 C 198.726562 14.480469 198.40625 15.875 199.03125 17.195312 C 199.402344 17.941406 198.613281 18.71875 197.289062 18.925781 C 196.621094 19.023438 195.949219 18.953125 195.40625 18.777344 Z M 195.40625 18.777344 "/>
<path style=" stroke:none;fill-rule:nonzero;fill:rgb(94.901961%,54.117647%,0%);fill-opacity:1;" d="M 99.347656 31.945312 C 99.042969 32.246094 98.507812 32.488281 97.851562 32.589844 C 94.21875 33.144531 90.425781 32.863281 87.167969 31.789062 C 83.90625 30.726562 81.578125 29.015625 80.597656 26.960938 C 80.253906 26.210938 81.039062 25.4375 82.351562 25.234375 C 83.699219 25.042969 85.042969 25.480469 85.394531 26.234375 C 86.03125 27.558594 87.539062 28.671875 89.660156 29.359375 C 91.753906 30.054688 94.210938 30.242188 96.558594 29.878906 C 97.882812 29.675781 99.257812 30.117188 99.605469 30.875 C 99.785156 31.246094 99.65625 31.628906 99.347656 31.945312 Z M 99.347656 31.945312 "/>
<path style=" stroke:none;fill-rule:nonzero;fill:rgb(94.901961%,54.117647%,0%);fill-opacity:1;" d="M 218.652344 73.144531 C 218.957031 72.835938 219.488281 72.589844 220.164062 72.492188 C 223.78125 71.9375 227.585938 72.214844 230.828125 73.28125 C 234.089844 74.347656 236.417969 76.066406 237.386719 78.121094 C 237.75 78.871094 236.960938 79.640625 235.628906 79.839844 C 234.320312 80.039062 232.949219 79.601562 232.597656 78.847656 C 231.964844 77.511719 230.46875 76.402344 228.351562 75.703125 C 226.246094 75.023438 223.789062 74.84375 221.441406 75.203125 C 220.125 75.398438 218.765625 74.964844 218.40625 74.203125 C 218.226562 73.835938 218.339844 73.453125 218.652344 73.144531 Z M 218.652344 73.144531 "/>
<path style=" stroke:none;fill-rule:nonzero;fill:rgb(94.901961%,54.117647%,0%);fill-opacity:1;" d="M 142.566406 14.097656 C 141.945312 14.195312 141.265625 14.15625 140.683594 13.957031 C 137.417969 12.898438 135.09375 11.175781 134.109375 9.117188 C 133.144531 7.0625 133.640625 4.917969 135.523438 3.074219 C 136.214844 2.410156 137.730469 2.167969 138.914062 2.5625 C 140.109375 2.945312 140.5 3.808594 139.824219 4.480469 C 138.585938 5.671875 138.277344 7.058594 138.894531 8.394531 C 139.550781 9.722656 141.046875 10.835938 143.167969 11.523438 C 144.347656 11.914062 144.75 12.769531 144.070312 13.445312 C 143.714844 13.78125 143.167969 14.007812 142.566406 14.097656 Z M 142.566406 14.097656 "/>
<path style=" stroke:none;fill-rule:nonzero;fill:rgb(94.901961%,54.117647%,0%);fill-opacity:1;" d="M 175.445312 90.984375 C 176.046875 90.890625 176.734375 90.929688 177.335938 91.121094 C 180.589844 92.1875 182.910156 93.910156 183.882812 95.953125 C 184.867188 98.019531 184.367188 100.160156 182.476562 102.007812 C 181.800781 102.683594 180.28125 102.914062 179.085938 102.511719 C 177.902344 102.132812 177.492188 101.277344 178.171875 100.585938 C 179.402344 99.40625 179.726562 98.023438 179.085938 96.6875 C 178.46875 95.355469 176.957031 94.246094 174.839844 93.554688 C 173.667969 93.171875 173.25 92.308594 173.9375 91.636719 C 174.269531 91.304688 174.832031 91.082031 175.445312 90.984375 Z M 175.445312 90.984375 "/>
</g>
</svg>
