<?xml version="1.0" encoding="UTF-8"?>
<svg xmlns="http://www.w3.org/2000/svg" xmlns:xlink="http://www.w3.org/1999/xlink" width="75pt" height="75pt" viewBox="0 0 75 75" version="1.1">
<g id="surface1">
<path style=" stroke:none;fill-rule:nonzero;fill:rgb(100%,81.960784%,6.27451%);fill-opacity:1;" d="M 42.746094 12.816406 C 42.746094 15.714844 40.394531 18.0625 37.5 18.0625 C 34.605469 18.0625 32.257812 15.714844 32.257812 12.816406 C 32.253906 9.917969 34.605469 0 37.5 0 C 40.394531 0 42.746094 9.917969 42.746094 12.816406 Z M 42.746094 12.816406 "/>
<path style=" stroke:none;fill-rule:nonzero;fill:rgb(96.862745%,72.54902%,4.313725%);fill-opacity:1;" d="M 37.5 0 C 40.394531 0 42.746094 9.917969 42.746094 12.816406 C 42.746094 15.714844 40.394531 18.0625 37.5 18.0625 "/>
<path style=" stroke:none;fill-rule:nonzero;fill:rgb(100%,81.960784%,6.27451%);fill-opacity:1;" d="M 32.253906 62.183594 C 32.253906 59.285156 34.605469 56.9375 37.5 56.9375 C 40.394531 56.9375 42.742188 59.285156 42.742188 62.183594 C 42.742188 65.082031 40.394531 75 37.5 75 C 34.605469 75 32.253906 65.082031 32.253906 62.183594 Z M 32.253906 62.183594 "/>
<path style=" stroke:none;fill-rule:nonzero;fill:rgb(96.862745%,72.54902%,4.313725%);fill-opacity:1;" d="M 37.5 75 C 34.605469 75 32.257812 65.082031 32.257812 62.183594 C 32.257812 59.285156 34.605469 56.9375 37.5 56.9375 "/>
<path style=" stroke:none;fill-rule:nonzero;fill:rgb(100%,81.960784%,6.27451%);fill-opacity:1;" d="M 58.660156 23.753906 C 56.613281 25.800781 53.292969 25.804688 51.246094 23.753906 C 49.203125 21.710938 49.199219 18.386719 51.246094 16.339844 C 53.296875 14.289062 61.96875 8.9375 64.015625 10.984375 C 66.066406 13.03125 60.710938 21.707031 58.660156 23.753906 Z M 58.660156 23.753906 "/>
<path style=" stroke:none;fill-rule:nonzero;fill:rgb(96.862745%,72.54902%,4.313725%);fill-opacity:1;" d="M 64.015625 10.984375 C 66.066406 13.03125 60.710938 21.707031 58.660156 23.753906 C 56.613281 25.800781 53.292969 25.800781 51.246094 23.753906 "/>
<path style=" stroke:none;fill-rule:nonzero;fill:rgb(100%,81.960784%,6.27451%);fill-opacity:1;" d="M 16.339844 51.246094 C 18.386719 49.199219 21.707031 49.199219 23.753906 51.246094 C 25.796875 53.289062 25.800781 56.613281 23.753906 58.660156 C 21.703125 60.710938 13.03125 66.0625 10.984375 64.015625 C 8.9375 61.96875 14.289062 53.296875 16.339844 51.246094 Z M 16.339844 51.246094 "/>
<path style=" stroke:none;fill-rule:nonzero;fill:rgb(96.862745%,72.54902%,4.313725%);fill-opacity:1;" d="M 10.984375 64.015625 C 8.933594 61.96875 14.289062 53.296875 16.339844 51.246094 C 18.386719 49.199219 21.707031 49.199219 23.753906 51.246094 "/>
<path style=" stroke:none;fill-rule:nonzero;fill:rgb(100%,81.960784%,6.27451%);fill-opacity:1;" d="M 62.179688 42.742188 C 59.289062 42.746094 56.9375 40.398438 56.9375 37.5 C 56.9375 34.605469 59.285156 32.257812 62.179688 32.257812 C 65.082031 32.257812 75 34.605469 75 37.5 C 75 40.398438 65.082031 42.746094 62.179688 42.742188 Z M 62.179688 42.742188 "/>
<path style=" stroke:none;fill-rule:nonzero;fill:rgb(96.862745%,72.54902%,4.313725%);fill-opacity:1;" d="M 75 37.5 C 75 40.398438 65.082031 42.746094 62.179688 42.742188 C 59.289062 42.746094 56.9375 40.398438 56.9375 37.5 "/>
<path style=" stroke:none;fill-rule:nonzero;fill:rgb(100%,81.960784%,6.27451%);fill-opacity:1;" d="M 12.816406 32.257812 C 15.714844 32.257812 18.0625 34.605469 18.0625 37.5 C 18.0625 40.394531 15.714844 42.742188 12.816406 42.746094 C 9.917969 42.742188 0 40.394531 0 37.5 C 0 34.601562 9.917969 32.257812 12.816406 32.257812 Z M 12.816406 32.257812 "/>
<path style=" stroke:none;fill-rule:nonzero;fill:rgb(96.862745%,72.54902%,4.313725%);fill-opacity:1;" d="M 0 37.5 C 0 34.601562 9.917969 32.257812 12.816406 32.257812 C 15.714844 32.257812 18.0625 34.605469 18.0625 37.5 "/>
<path style=" stroke:none;fill-rule:nonzero;fill:rgb(100%,81.960784%,6.27451%);fill-opacity:1;" d="M 51.242188 58.660156 C 49.199219 56.617188 49.195312 53.292969 51.246094 51.25 C 53.292969 49.203125 56.613281 49.199219 58.660156 51.246094 C 60.710938 53.296875 66.0625 61.972656 64.015625 64.015625 C 61.96875 66.066406 53.292969 60.710938 51.242188 58.660156 Z M 51.242188 58.660156 "/>
<path style=" stroke:none;fill-rule:nonzero;fill:rgb(96.862745%,72.54902%,4.313725%);fill-opacity:1;" d="M 64.015625 64.015625 C 61.96875 66.066406 53.292969 60.710938 51.242188 58.660156 C 49.199219 56.617188 49.195312 53.292969 51.246094 51.25 "/>
<path style=" stroke:none;fill-rule:nonzero;fill:rgb(100%,81.960784%,6.27451%);fill-opacity:1;" d="M 23.753906 16.339844 C 25.800781 18.386719 25.800781 21.707031 23.753906 23.753906 C 21.707031 25.800781 18.386719 25.800781 16.339844 23.753906 C 14.289062 21.703125 8.9375 13.03125 10.984375 10.984375 C 13.03125 8.9375 21.703125 14.289062 23.753906 16.339844 Z M 23.753906 16.339844 "/>
<path style=" stroke:none;fill-rule:nonzero;fill:rgb(96.862745%,72.54902%,4.313725%);fill-opacity:1;" d="M 10.984375 10.984375 C 13.03125 8.9375 21.703125 14.289062 23.753906 16.339844 C 25.796875 18.386719 25.800781 21.707031 23.753906 23.753906 "/>
<path style=" stroke:none;fill-rule:nonzero;fill:rgb(100%,81.960784%,6.27451%);fill-opacity:1;" d="M 29.699219 13.503906 C 31.148438 16.011719 30.289062 19.21875 27.78125 20.664062 C 25.273438 22.109375 22.070312 21.253906 20.617188 18.746094 C 19.171875 16.234375 16.246094 6.46875 18.75 5.023438 C 21.257812 3.578125 28.25 10.992188 29.699219 13.503906 Z M 29.699219 13.503906 "/>
<path style=" stroke:none;fill-rule:nonzero;fill:rgb(96.862745%,72.54902%,4.313725%);fill-opacity:1;" d="M 18.75 5.023438 C 21.257812 3.578125 28.25 10.992188 29.699219 13.503906 C 31.148438 16.011719 30.289062 19.21875 27.78125 20.664062 "/>
<path style=" stroke:none;fill-rule:nonzero;fill:rgb(100%,81.960784%,6.27451%);fill-opacity:1;" d="M 45.300781 61.496094 C 43.855469 58.988281 44.714844 55.78125 47.21875 54.335938 C 49.726562 52.890625 52.9375 53.746094 54.382812 56.253906 C 55.832031 58.765625 58.753906 68.53125 56.246094 69.976562 C 53.742188 71.421875 46.75 64.007812 45.300781 61.496094 Z M 45.300781 61.496094 "/>
<path style=" stroke:none;fill-rule:nonzero;fill:rgb(96.862745%,72.54902%,4.313725%);fill-opacity:1;" d="M 56.246094 69.976562 C 53.742188 71.421875 46.75 64.007812 45.300781 61.496094 C 43.855469 58.988281 44.714844 55.78125 47.21875 54.335938 "/>
<path style=" stroke:none;fill-rule:nonzero;fill:rgb(100%,81.960784%,6.27451%);fill-opacity:1;" d="M 48.953125 15.019531 C 48.203125 17.8125 45.328125 19.472656 42.535156 18.722656 C 39.738281 17.972656 38.078125 15.097656 38.824219 12.300781 C 39.578125 9.5 44.414062 0.527344 47.203125 1.277344 C 50.003906 2.027344 49.703125 12.21875 48.953125 15.019531 Z M 48.953125 15.019531 "/>
<path style=" stroke:none;fill-rule:nonzero;fill:rgb(96.862745%,72.54902%,4.313725%);fill-opacity:1;" d="M 47.203125 1.277344 C 50.003906 2.027344 49.703125 12.21875 48.953125 15.019531 C 48.203125 17.8125 45.328125 19.472656 42.53125 18.722656 "/>
<path style=" stroke:none;fill-rule:nonzero;fill:rgb(100%,81.960784%,6.27451%);fill-opacity:1;" d="M 26.046875 59.984375 C 26.796875 57.1875 29.675781 55.527344 32.46875 56.277344 C 35.265625 57.027344 36.929688 59.902344 36.179688 62.699219 C 35.425781 65.5 30.589844 74.472656 27.792969 73.722656 C 24.996094 72.972656 25.296875 62.78125 26.046875 59.984375 Z M 26.046875 59.984375 "/>
<path style=" stroke:none;fill-rule:nonzero;fill:rgb(96.862745%,72.54902%,4.313725%);fill-opacity:1;" d="M 27.792969 73.722656 C 24.996094 72.96875 25.296875 62.78125 26.046875 59.984375 C 26.796875 57.1875 29.675781 55.527344 32.46875 56.277344 "/>
<path style=" stroke:none;fill-rule:nonzero;fill:rgb(100%,81.960784%,6.27451%);fill-opacity:1;" d="M 61.5 29.699219 C 58.992188 31.148438 55.785156 30.292969 54.335938 27.78125 C 52.890625 25.273438 53.75 22.066406 56.253906 20.617188 C 58.765625 19.167969 68.53125 16.246094 69.976562 18.75 C 71.425781 21.261719 64.007812 28.25 61.5 29.699219 Z M 61.5 29.699219 "/>
<path style=" stroke:none;fill-rule:nonzero;fill:rgb(96.862745%,72.54902%,4.313725%);fill-opacity:1;" d="M 69.976562 18.75 C 71.425781 21.261719 64.007812 28.25 61.5 29.699219 C 58.992188 31.148438 55.785156 30.292969 54.335938 27.78125 "/>
<path style=" stroke:none;fill-rule:nonzero;fill:rgb(100%,81.960784%,6.27451%);fill-opacity:1;" d="M 13.503906 45.300781 C 16.011719 43.851562 19.222656 44.710938 20.664062 47.21875 C 22.109375 49.726562 21.253906 52.933594 18.746094 54.382812 C 16.234375 55.832031 6.46875 58.753906 5.023438 56.25 C 3.578125 53.742188 10.992188 46.75 13.503906 45.300781 Z M 13.503906 45.300781 "/>
<path style=" stroke:none;fill-rule:nonzero;fill:rgb(96.862745%,72.54902%,4.313725%);fill-opacity:1;" d="M 5.023438 56.25 C 3.578125 53.742188 10.992188 46.75 13.503906 45.300781 C 16.011719 43.851562 19.222656 44.710938 20.664062 47.21875 "/>
<path style=" stroke:none;fill-rule:nonzero;fill:rgb(100%,81.960784%,6.27451%);fill-opacity:1;" d="M 59.984375 48.953125 C 57.1875 48.203125 55.527344 45.328125 56.277344 42.53125 C 57.027344 39.734375 59.902344 38.074219 62.699219 38.824219 C 65.5 39.574219 74.472656 44.410156 73.722656 47.203125 C 72.972656 50.003906 62.785156 49.707031 59.984375 48.953125 Z M 59.984375 48.953125 "/>
<path style=" stroke:none;fill-rule:nonzero;fill:rgb(96.862745%,72.54902%,4.313725%);fill-opacity:1;" d="M 73.722656 47.207031 C 72.972656 50.003906 62.785156 49.703125 59.984375 48.953125 C 57.1875 48.203125 55.527344 45.328125 56.277344 42.53125 "/>
<path style=" stroke:none;fill-rule:nonzero;fill:rgb(100%,81.960784%,6.27451%);fill-opacity:1;" d="M 15.015625 26.046875 C 17.8125 26.796875 19.472656 29.675781 18.722656 32.46875 C 17.972656 35.265625 15.097656 36.925781 12.300781 36.175781 C 9.5 35.425781 0.53125 30.589844 1.277344 27.792969 C 2.027344 24.996094 12.214844 25.296875 15.015625 26.046875 Z M 15.015625 26.046875 "/>
<path style=" stroke:none;fill-rule:nonzero;fill:rgb(96.862745%,72.54902%,4.313725%);fill-opacity:1;" d="M 1.277344 27.792969 C 2.03125 24.996094 12.214844 25.296875 15.015625 26.046875 C 17.8125 26.796875 19.472656 29.675781 18.726562 32.46875 "/>
<path style=" stroke:none;fill-rule:nonzero;fill:rgb(100%,81.960784%,6.27451%);fill-opacity:1;" d="M 18.75 20.617188 C 21.257812 22.0625 22.117188 25.273438 20.667969 27.78125 C 19.222656 30.285156 16.011719 31.144531 13.503906 29.699219 C 10.996094 28.25 3.582031 21.257812 5.027344 18.75 C 6.472656 16.242188 16.238281 19.167969 18.75 20.617188 Z M 18.75 20.617188 "/>
<path style=" stroke:none;fill-rule:nonzero;fill:rgb(96.862745%,72.54902%,4.313725%);fill-opacity:1;" d="M 5.023438 18.75 C 6.472656 16.242188 16.238281 19.167969 18.75 20.617188 C 21.257812 22.0625 22.117188 25.273438 20.667969 27.78125 "/>
<path style=" stroke:none;fill-rule:nonzero;fill:rgb(100%,81.960784%,6.27451%);fill-opacity:1;" d="M 56.257812 54.382812 C 53.746094 52.933594 52.886719 49.726562 54.335938 47.21875 C 55.777344 44.714844 58.992188 43.851562 61.496094 45.300781 C 64.007812 46.75 71.421875 53.746094 69.972656 56.25 C 68.53125 58.757812 58.765625 55.832031 56.257812 54.382812 Z M 56.257812 54.382812 "/>
<path style=" stroke:none;fill-rule:nonzero;fill:rgb(96.862745%,72.54902%,4.313725%);fill-opacity:1;" d="M 69.972656 56.25 C 68.53125 58.757812 58.765625 55.832031 56.257812 54.378906 C 53.746094 52.933594 52.886719 49.726562 54.335938 47.21875 "/>
<path style=" stroke:none;fill-rule:nonzero;fill:rgb(100%,81.960784%,6.27451%);fill-opacity:1;" d="M 36.179688 12.300781 C 36.929688 15.097656 35.269531 17.972656 32.472656 18.722656 C 29.675781 19.46875 26.800781 17.8125 26.050781 15.019531 C 25.300781 12.214844 25 2.027344 27.792969 1.277344 C 30.589844 0.527344 35.425781 9.5 36.179688 12.300781 Z M 36.179688 12.300781 "/>
<path style=" stroke:none;fill-rule:nonzero;fill:rgb(96.862745%,72.54902%,4.313725%);fill-opacity:1;" d="M 27.792969 1.277344 C 30.59375 0.527344 35.429688 9.503906 36.179688 12.300781 C 36.929688 15.097656 35.269531 17.972656 32.472656 18.722656 "/>
<path style=" stroke:none;fill-rule:nonzero;fill:rgb(100%,81.960784%,6.27451%);fill-opacity:1;" d="M 38.824219 62.699219 C 38.078125 59.902344 39.738281 57.027344 42.535156 56.277344 C 45.332031 55.527344 48.203125 57.183594 48.953125 59.984375 C 49.707031 62.785156 50 72.972656 47.203125 73.722656 C 44.410156 74.472656 39.574219 65.5 38.824219 62.699219 Z M 38.824219 62.699219 "/>
<path style=" stroke:none;fill-rule:nonzero;fill:rgb(96.862745%,72.54902%,4.313725%);fill-opacity:1;" d="M 47.203125 73.722656 C 44.40625 74.472656 39.574219 65.496094 38.824219 62.699219 C 38.078125 59.902344 39.738281 57.027344 42.535156 56.277344 "/>
<path style=" stroke:none;fill-rule:nonzero;fill:rgb(100%,81.960784%,6.27451%);fill-opacity:1;" d="M 54.382812 18.746094 C 52.9375 21.253906 49.726562 22.117188 47.21875 20.667969 C 44.714844 19.21875 43.855469 16.011719 45.304688 13.503906 C 46.75 10.992188 53.746094 3.578125 56.253906 5.023438 C 58.757812 6.472656 55.832031 16.238281 54.382812 18.746094 Z M 54.382812 18.746094 "/>
<path style=" stroke:none;fill-rule:nonzero;fill:rgb(96.862745%,72.54902%,4.313725%);fill-opacity:1;" d="M 56.253906 5.023438 C 58.757812 6.472656 55.832031 16.234375 54.382812 18.746094 C 52.9375 21.253906 49.726562 22.117188 47.21875 20.667969 "/>
<path style=" stroke:none;fill-rule:nonzero;fill:rgb(100%,81.960784%,6.27451%);fill-opacity:1;" d="M 20.621094 56.253906 C 22.066406 53.746094 25.277344 52.886719 27.78125 54.335938 C 30.289062 55.78125 31.148438 58.988281 29.699219 61.496094 C 28.25 64.007812 21.257812 71.421875 18.75 69.972656 C 16.242188 68.527344 19.164062 58.765625 20.621094 56.253906 Z M 20.621094 56.253906 "/>
<path style=" stroke:none;fill-rule:nonzero;fill:rgb(96.862745%,72.54902%,4.313725%);fill-opacity:1;" d="M 18.75 69.976562 C 16.242188 68.527344 19.164062 58.765625 20.621094 56.253906 C 22.066406 53.746094 25.277344 52.886719 27.78125 54.335938 "/>
<path style=" stroke:none;fill-rule:nonzero;fill:rgb(100%,81.960784%,6.27451%);fill-opacity:1;" d="M 62.699219 36.175781 C 59.90625 36.925781 57.027344 35.269531 56.28125 32.46875 C 55.53125 29.675781 57.1875 26.796875 59.984375 26.046875 C 62.785156 25.296875 72.972656 25 73.722656 27.792969 C 74.472656 30.59375 65.503906 35.425781 62.699219 36.175781 Z M 62.699219 36.175781 "/>
<path style=" stroke:none;fill-rule:nonzero;fill:rgb(96.862745%,72.54902%,4.313725%);fill-opacity:1;" d="M 73.722656 27.792969 C 74.472656 30.59375 65.5 35.429688 62.699219 36.175781 C 59.90625 36.925781 57.027344 35.269531 56.28125 32.46875 "/>
<path style=" stroke:none;fill-rule:nonzero;fill:rgb(100%,81.960784%,6.27451%);fill-opacity:1;" d="M 12.300781 38.824219 C 15.097656 38.074219 17.972656 39.734375 18.722656 42.53125 C 19.476562 45.328125 17.816406 48.203125 15.015625 48.953125 C 12.21875 49.707031 2.027344 50 1.277344 47.207031 C 0.53125 44.40625 9.5 39.574219 12.300781 38.824219 Z M 12.300781 38.824219 "/>
<path style=" stroke:none;fill-rule:nonzero;fill:rgb(96.862745%,72.54902%,4.313725%);fill-opacity:1;" d="M 1.277344 47.207031 C 0.53125 44.40625 9.5 39.574219 12.300781 38.824219 C 15.097656 38.074219 17.972656 39.734375 18.722656 42.53125 "/>
<path style=" stroke:none;fill-rule:nonzero;fill:rgb(10.196078%,23.921569%,35.686275%);fill-opacity:1;" d="M 59.332031 37.5 C 59.332031 49.558594 49.558594 59.332031 37.5 59.332031 C 25.441406 59.332031 15.667969 49.558594 15.667969 37.5 C 15.667969 25.441406 25.441406 15.667969 37.5 15.667969 C 49.558594 15.667969 59.332031 25.441406 59.332031 37.5 Z M 59.332031 37.5 "/>
<path style=" stroke:none;fill-rule:nonzero;fill:rgb(10.196078%,23.921569%,35.686275%);fill-opacity:1;" d="M 37.5 60.679688 C 31.308594 60.679688 25.484375 58.269531 21.109375 53.890625 C 12.070312 44.851562 12.070312 30.148438 21.109375 21.109375 C 25.484375 16.730469 31.308594 14.316406 37.5 14.316406 C 43.691406 14.316406 49.511719 16.730469 53.890625 21.109375 C 62.929688 30.148438 62.929688 44.851562 53.890625 53.890625 C 49.511719 58.269531 43.691406 60.679688 37.5 60.679688 Z M 37.5 60.679688 "/>
<path style=" stroke:none;fill-rule:nonzero;fill:rgb(89.803922%,63.137255%,3.921569%);fill-opacity:1;" d="M 37.5 15.667969 C 43.085938 15.667969 48.675781 17.796875 52.9375 22.0625 C 61.460938 30.589844 61.460938 44.410156 52.9375 52.9375 C 48.675781 57.199219 43.085938 59.332031 37.5 59.332031 C 31.914062 59.332031 26.324219 57.199219 22.0625 52.9375 C 13.539062 44.410156 13.539062 30.589844 22.0625 22.0625 C 26.324219 17.796875 31.914062 15.667969 37.5 15.667969 M 37.5 12.964844 C 30.945312 12.964844 24.789062 15.519531 20.152344 20.152344 C 10.589844 29.71875 10.589844 45.28125 20.152344 54.847656 C 24.789062 59.480469 30.945312 62.03125 37.5 62.03125 C 44.050781 62.03125 50.210938 59.480469 54.847656 54.84375 C 64.410156 45.28125 64.410156 29.71875 54.847656 20.152344 C 50.210938 15.519531 44.054688 12.964844 37.5 12.964844 Z M 37.5 12.964844 "/>
<path style=" stroke:none;fill-rule:nonzero;fill:rgb(3.137255%,12.941176%,18.823529%);fill-opacity:1;" d="M 52.9375 22.0625 C 61.460938 30.589844 61.460938 44.410156 52.9375 52.9375 C 44.410156 61.460938 30.589844 61.460938 22.0625 52.9375 "/>
<path style=" stroke:none;fill-rule:nonzero;fill:rgb(5.490196%,17.254902%,25.882353%);fill-opacity:1;" d="M 53.703125 25.683594 C 53.703125 26.011719 53.441406 26.273438 53.113281 26.273438 L 21.886719 26.273438 C 21.558594 26.273438 21.296875 26.011719 21.296875 25.683594 C 21.296875 25.359375 21.558594 25.09375 21.886719 25.09375 L 53.113281 25.09375 C 53.441406 25.09375 53.703125 25.359375 53.703125 25.683594 Z M 53.703125 25.683594 "/>
<path style=" stroke:none;fill-rule:nonzero;fill:rgb(5.490196%,17.254902%,25.882353%);fill-opacity:1;" d="M 53.703125 31.589844 C 53.703125 31.917969 53.441406 32.183594 53.113281 32.183594 L 21.886719 32.183594 C 21.558594 32.183594 21.296875 31.917969 21.296875 31.589844 C 21.296875 31.265625 21.558594 31 21.886719 31 L 53.113281 31 C 53.441406 31 53.703125 31.265625 53.703125 31.589844 Z M 53.703125 31.589844 "/>
<path style=" stroke:none;fill-rule:nonzero;fill:rgb(5.490196%,17.254902%,25.882353%);fill-opacity:1;" d="M 53.703125 37.5 C 53.703125 37.824219 53.441406 38.089844 53.113281 38.089844 L 21.886719 38.089844 C 21.558594 38.089844 21.296875 37.824219 21.296875 37.5 C 21.296875 37.175781 21.558594 36.910156 21.886719 36.910156 L 53.113281 36.910156 C 53.441406 36.910156 53.703125 37.175781 53.703125 37.5 Z M 53.703125 37.5 "/>
<path style=" stroke:none;fill-rule:nonzero;fill:rgb(5.490196%,17.254902%,25.882353%);fill-opacity:1;" d="M 53.703125 43.40625 C 53.703125 43.734375 53.441406 44 53.113281 44 L 21.886719 44 C 21.558594 44 21.296875 43.734375 21.296875 43.40625 C 21.296875 43.082031 21.558594 42.816406 21.886719 42.816406 L 53.113281 42.816406 C 53.441406 42.816406 53.703125 43.082031 53.703125 43.40625 Z M 53.703125 43.40625 "/>
<path style=" stroke:none;fill-rule:nonzero;fill:rgb(5.490196%,17.254902%,25.882353%);fill-opacity:1;" d="M 53.703125 49.316406 C 53.703125 49.640625 53.441406 49.90625 53.113281 49.90625 L 21.886719 49.90625 C 21.558594 49.90625 21.296875 49.640625 21.296875 49.316406 C 21.296875 48.992188 21.558594 48.726562 21.886719 48.726562 L 53.113281 48.726562 C 53.441406 48.726562 53.703125 48.992188 53.703125 49.316406 Z M 53.703125 49.316406 "/>
<path style=" stroke:none;fill-rule:nonzero;fill:rgb(5.490196%,17.254902%,25.882353%);fill-opacity:1;" d="M 49.316406 53.703125 C 48.988281 53.703125 48.722656 53.441406 48.722656 53.113281 L 48.722656 21.886719 C 48.722656 21.558594 48.988281 21.296875 49.316406 21.296875 C 49.640625 21.296875 49.90625 21.558594 49.90625 21.886719 L 49.90625 53.113281 C 49.90625 53.441406 49.640625 53.703125 49.316406 53.703125 Z M 49.316406 53.703125 "/>
<path style=" stroke:none;fill-rule:nonzero;fill:rgb(5.490196%,17.254902%,25.882353%);fill-opacity:1;" d="M 43.40625 53.703125 C 43.082031 53.703125 42.816406 53.441406 42.816406 53.113281 L 42.816406 21.886719 C 42.816406 21.558594 43.082031 21.296875 43.40625 21.296875 C 43.730469 21.296875 43.996094 21.558594 43.996094 21.886719 L 43.996094 53.113281 C 43.996094 53.441406 43.730469 53.703125 43.40625 53.703125 Z M 43.40625 53.703125 "/>
<path style=" stroke:none;fill-rule:nonzero;fill:rgb(5.490196%,17.254902%,25.882353%);fill-opacity:1;" d="M 37.5 53.703125 C 37.171875 53.703125 36.910156 53.441406 36.910156 53.113281 L 36.910156 21.886719 C 36.910156 21.558594 37.171875 21.296875 37.5 21.296875 C 37.824219 21.296875 38.089844 21.558594 38.089844 21.886719 L 38.089844 53.113281 C 38.089844 53.441406 37.824219 53.703125 37.5 53.703125 Z M 37.5 53.703125 "/>
<path style=" stroke:none;fill-rule:nonzero;fill:rgb(5.490196%,17.254902%,25.882353%);fill-opacity:1;" d="M 31.59375 53.703125 C 31.265625 53.703125 31 53.441406 31 53.113281 L 31 21.886719 C 31 21.558594 31.265625 21.296875 31.59375 21.296875 C 31.917969 21.296875 32.183594 21.558594 32.183594 21.886719 L 32.183594 53.113281 C 32.183594 53.441406 31.917969 53.703125 31.59375 53.703125 Z M 31.59375 53.703125 "/>
<path style=" stroke:none;fill-rule:nonzero;fill:rgb(5.490196%,17.254902%,25.882353%);fill-opacity:1;" d="M 25.683594 53.703125 C 25.359375 53.703125 25.09375 53.441406 25.09375 53.113281 L 25.09375 21.886719 C 25.09375 21.558594 25.359375 21.296875 25.683594 21.296875 C 26.007812 21.296875 26.277344 21.558594 26.277344 21.886719 L 26.277344 53.113281 C 26.277344 53.441406 26.007812 53.703125 25.683594 53.703125 Z M 25.683594 53.703125 "/>
</g>
</svg>
