<?xml version="1.0" encoding="UTF-8"?>
<svg xmlns="http://www.w3.org/2000/svg" xmlns:xlink="http://www.w3.org/1999/xlink" width="240pt" height="110pt" viewBox="0 0 318 180" version="1.1">
<g id="surface1">
<path style=" stroke:none;fill-rule:nonzero;fill:rgb(99.607843%,85.490196%,26.666667%);fill-opacity:1;" d="M 307.890625 143.175781 C 315.542969 138.742188 315.078125 131.589844 306.875 127.484375 L 303.492188 125.792969 C 301.757812 124.925781 301.085938 123.566406 301.773438 122.316406 L 303.929688 118.394531 C 307.414062 112.066406 301.765625 105.277344 290.921875 102.765625 L 283.773438 101.109375 C 281.871094 100.667969 280.515625 99.699219 280.199219 98.550781 L 279.019531 94.285156 C 277.199219 87.710938 266.769531 83.023438 255.039062 83.515625 L 247.441406 83.832031 C 245.390625 83.917969 243.410156 83.390625 242.222656 82.441406 L 237.683594 78.816406 C 230.941406 73.429688 218.066406 71.835938 207.96875 75.136719 L 201.191406 77.347656 C 199.375 77.941406 197.140625 77.941406 195.328125 77.347656 L 188.550781 75.136719 C 178.453125 71.835938 165.574219 73.429688 158.832031 78.816406 L 154.292969 82.441406 C 153.105469 83.390625 151.125 83.917969 149.074219 83.832031 L 141.476562 83.515625 C 129.75 83.023438 119.320312 87.710938 117.5 94.285156 L 116.320312 98.550781 C 116 99.695312 114.644531 100.667969 112.746094 101.109375 L 105.59375 102.765625 C 94.753906 105.277344 89.105469 112.0625 92.585938 118.394531 L 94.742188 122.316406 C 95.429688 123.566406 94.757812 124.925781 93.023438 125.792969 L 89.640625 127.484375 C 81.4375 131.589844 80.972656 138.746094 88.625 143.175781 C 92.289062 145.300781 97.3125 146.496094 102.554688 146.496094 L 293.960938 146.496094 C 299.203125 146.496094 304.226562 145.296875 307.890625 143.175781 Z M 307.890625 143.175781 "/>
<path style=" stroke:none;fill-rule:nonzero;fill:rgb(100%,60%,6.666667%);fill-opacity:1;" d="M 117.789062 127.484375 L 121.171875 125.792969 C 122.90625 124.925781 123.578125 123.566406 122.890625 122.316406 L 120.734375 118.394531 C 117.25 112.0625 122.902344 105.277344 133.742188 102.765625 L 140.894531 101.109375 C 142.792969 100.667969 144.148438 99.695312 144.46875 98.546875 L 145.648438 94.285156 C 147.46875 87.710938 157.898438 83.023438 169.625 83.515625 L 177.226562 83.832031 C 179.273438 83.917969 181.253906 83.390625 182.441406 82.441406 L 186.980469 78.816406 C 188.292969 77.769531 189.839844 76.867188 191.546875 76.113281 L 188.550781 75.136719 C 178.453125 71.835938 165.578125 73.429688 158.835938 78.816406 L 154.296875 82.441406 C 153.105469 83.390625 151.128906 83.917969 149.078125 83.832031 L 141.476562 83.515625 C 129.75 83.023438 119.320312 87.707031 117.5 94.285156 L 116.320312 98.546875 C 116 99.695312 114.644531 100.667969 112.746094 101.105469 L 105.59375 102.765625 C 94.753906 105.277344 89.105469 112.0625 92.585938 118.394531 L 94.742188 122.316406 C 95.429688 123.566406 94.757812 124.925781 93.027344 125.792969 L 89.640625 127.484375 C 81.4375 131.589844 80.976562 138.742188 88.628906 143.175781 C 92.292969 145.296875 97.3125 146.496094 102.558594 146.496094 L 130.703125 146.496094 C 125.460938 146.496094 120.4375 145.296875 116.773438 143.175781 C 109.125 138.742188 109.585938 131.589844 117.789062 127.484375 Z M 117.789062 127.484375 "/>
<path style=" stroke:none;fill-rule:nonzero;fill:rgb(100%,60%,6.666667%);fill-opacity:1;" d="M 216.699219 75.136719 L 223.472656 77.347656 C 225.289062 77.941406 227.523438 77.941406 229.339844 77.347656 L 233.117188 76.113281 C 227.261719 73.535156 219.460938 72.738281 212.332031 74.039062 C 213.824219 74.3125 215.289062 74.675781 216.699219 75.136719 Z M 216.699219 75.136719 "/>
<path style=" stroke:none;fill-rule:nonzero;fill:rgb(99.607843%,85.490196%,26.666667%);fill-opacity:1;" d="M 105.59375 102.765625 L 112.746094 101.109375 C 114.644531 100.667969 116 99.695312 116.320312 98.546875 L 117.5 94.285156 C 119.320312 87.710938 129.75 83.023438 141.476562 83.515625 L 149.078125 83.832031 C 151.128906 83.917969 153.105469 83.390625 154.296875 82.441406 L 158.835938 78.816406 C 165.578125 73.429688 178.453125 71.835938 188.550781 75.136719 L 195.328125 77.347656 C 197.144531 77.941406 199.378906 77.941406 201.191406 77.347656 L 207.96875 75.136719 C 213.761719 73.242188 220.46875 72.964844 226.40625 74.082031 C 225.992188 69.25 220.734375 64.796875 212.40625 62.867188 L 205.253906 61.210938 C 203.355469 60.769531 202 59.800781 201.679688 58.652344 L 200.5 54.386719 C 198.679688 47.8125 188.25 43.125 176.523438 43.617188 L 168.925781 43.933594 C 166.875 44.019531 164.894531 43.492188 163.707031 42.542969 L 159.167969 38.917969 C 152.425781 33.535156 139.546875 31.9375 129.449219 35.238281 L 122.671875 37.453125 C 120.859375 38.042969 118.625 38.042969 116.808594 37.453125 L 110.03125 35.238281 C 99.933594 31.9375 87.058594 33.535156 80.316406 38.917969 L 75.777344 42.542969 C 74.589844 43.492188 72.609375 44.019531 70.558594 43.933594 L 62.960938 43.617188 C 51.230469 43.125 40.800781 47.8125 38.980469 54.386719 L 37.800781 58.652344 C 37.484375 59.800781 36.128906 60.769531 34.226562 61.210938 L 27.078125 62.867188 C 16.234375 65.378906 10.585938 72.167969 14.066406 78.5 L 16.222656 82.417969 C 16.910156 83.667969 16.238281 85.027344 14.507812 85.894531 L 11.125 87.585938 C 2.917969 91.691406 2.457031 98.847656 10.109375 103.277344 C 13.773438 105.402344 18.792969 106.597656 24.039062 106.597656 L 96.53125 106.597656 C 98.859375 104.953125 101.929688 103.613281 105.59375 102.765625 Z M 105.59375 102.765625 "/>
<path style=" stroke:none;fill-rule:nonzero;fill:rgb(99.607843%,85.490196%,26.666667%);fill-opacity:1;" d="M 140.238281 35.238281 L 147.011719 37.449219 C 148.828125 38.042969 151.0625 38.042969 152.878906 37.449219 L 155.449219 36.609375 C 149.789062 33.855469 142.039062 32.867188 134.84375 33.96875 C 136.691406 34.253906 138.503906 34.671875 140.238281 35.238281 Z M 140.238281 35.238281 "/>
<path style=" stroke:none;fill-rule:nonzero;fill:rgb(100%,60%,6.666667%);fill-opacity:1;" d="M 40.316406 103.277344 C 32.660156 98.847656 33.125 91.691406 41.328125 87.585938 L 44.714844 85.894531 C 46.445312 85.027344 47.117188 83.667969 46.429688 82.417969 L 44.273438 78.5 C 40.792969 72.167969 46.441406 65.378906 57.28125 62.867188 L 64.433594 61.210938 C 66.332031 60.769531 67.6875 59.800781 68.007812 58.652344 L 69.1875 54.386719 C 71.007812 47.8125 81.4375 43.125 93.164062 43.617188 L 100.765625 43.933594 C 102.816406 44.019531 104.792969 43.492188 105.984375 42.542969 L 110.523438 38.917969 C 111.613281 38.046875 112.863281 37.277344 114.238281 36.609375 L 110.035156 35.238281 C 99.933594 31.9375 87.058594 33.53125 80.316406 38.917969 L 75.777344 42.542969 C 74.589844 43.492188 72.609375 44.019531 70.558594 43.933594 L 62.960938 43.617188 C 51.234375 43.125 40.804688 47.8125 38.980469 54.386719 L 37.800781 58.652344 C 37.484375 59.800781 36.128906 60.769531 34.230469 61.210938 L 27.078125 62.867188 C 16.234375 65.378906 10.585938 72.167969 14.070312 78.496094 L 16.226562 82.417969 C 16.914062 83.667969 16.238281 85.027344 14.507812 85.894531 L 11.125 87.585938 C 2.921875 91.691406 2.457031 98.847656 10.109375 103.277344 C 13.773438 105.402344 18.796875 106.597656 24.039062 106.597656 L 54.242188 106.597656 C 49 106.597656 43.980469 105.402344 40.316406 103.277344 Z M 40.316406 103.277344 "/>
<path style=" stroke:none;fill-rule:nonzero;fill:rgb(100%,100%,100%);fill-opacity:1;" d="M 157.578125 57.144531 L 162.007812 52.503906 C 149.109375 48.558594 134.492188 46.472656 119.742188 46.472656 C 100.453125 46.472656 82.101562 49.90625 66.664062 56.40625 C 51.535156 62.773438 40.539062 71.492188 34.863281 81.613281 L 43.742188 83.210938 C 54.292969 64.390625 84.832031 51.746094 119.742188 51.746094 C 132.953125 51.746094 146.039062 53.613281 157.578125 57.144531 Z M 157.578125 57.144531 "/>
<path style=" stroke:none;fill-rule:nonzero;fill:rgb(100%,100%,100%);fill-opacity:1;" d="M 180.226562 67.480469 L 187.292969 64.042969 C 182.527344 60.902344 177.089844 58.101562 171.128906 55.710938 L 165.746094 60.015625 C 171.085938 62.15625 175.957031 64.667969 180.226562 67.480469 Z M 180.226562 67.480469 "/>
<path style=" stroke:none;fill-rule:nonzero;fill:rgb(100%,100%,100%);fill-opacity:1;" d="M 198.257812 86.371094 C 178.96875 86.371094 160.617188 89.804688 145.183594 96.300781 C 130.050781 102.671875 119.054688 111.390625 113.378906 121.511719 L 122.261719 123.105469 C 132.808594 104.289062 163.351562 91.644531 198.257812 91.644531 C 221.523438 91.644531 243.570312 97.378906 258.746094 107.375 L 265.8125 103.941406 C 248.863281 92.773438 224.242188 86.371094 198.257812 86.371094 Z M 198.257812 86.371094 "/>
<path style=" stroke:none;fill-rule:nonzero;fill:rgb(100%,100%,100%);fill-opacity:1;" d="M 264.460938 111.625 C 268.679688 115.175781 271.976562 119.042969 274.257812 123.105469 L 283.136719 121.511719 C 280.589844 116.96875 276.90625 112.652344 272.191406 108.683594 Z M 264.460938 111.625 "/>
<path style=" stroke:none;fill-rule:nonzero;fill:rgb(0%,0%,0%);fill-opacity:1;" d="M 317.984375 135.109375 C 317.742188 131.386719 314.894531 127.976562 309.960938 125.507812 L 306.578125 123.816406 C 306.21875 123.640625 306.082031 123.359375 306.222656 123.101562 L 308.378906 119.179688 C 312.613281 111.484375 305.867188 103.378906 292.6875 100.324219 L 285.539062 98.667969 C 285.148438 98.578125 284.867188 98.375 284.800781 98.140625 L 283.621094 93.878906 C 281.441406 86.003906 268.738281 80.296875 254.699219 80.882812 L 247.097656 81.203125 C 246.683594 81.21875 246.269531 81.109375 246.023438 80.914062 L 241.484375 77.289062 C 238.632812 75.011719 234.898438 73.296875 230.726562 72.199219 C 229.195312 66.96875 222.949219 62.460938 214.171875 60.425781 L 207.019531 58.769531 C 206.632812 58.679688 206.347656 58.476562 206.285156 58.242188 L 205.105469 53.980469 C 202.925781 46.105469 190.230469 40.402344 176.179688 40.988281 L 168.582031 41.304688 C 168.164062 41.320312 167.75 41.210938 167.507812 41.019531 L 162.96875 37.394531 C 154.785156 30.859375 139.375 28.949219 127.121094 32.953125 L 120.347656 35.167969 C 119.972656 35.289062 119.511719 35.289062 119.136719 35.167969 L 112.363281 32.953125 C 100.109375 28.949219 84.695312 30.859375 76.515625 37.394531 L 71.976562 41.019531 C 71.734375 41.214844 71.320312 41.320312 70.902344 41.304688 L 63.304688 40.988281 C 49.253906 40.398438 36.558594 46.105469 34.378906 53.980469 L 33.199219 58.242188 C 33.136719 58.476562 32.851562 58.679688 32.464844 58.769531 L 25.3125 60.425781 C 12.136719 63.480469 5.390625 71.585938 9.621094 79.28125 L 11.777344 83.203125 C 11.917969 83.460938 11.78125 83.742188 11.425781 83.917969 L 8.039062 85.613281 C 3.105469 88.078125 0.257812 91.488281 0.015625 95.214844 C -0.222656 98.9375 2.175781 102.457031 6.777344 105.121094 C 11.292969 107.734375 17.582031 109.234375 24.039062 109.234375 L 88.554688 109.234375 C 86.542969 112.316406 86.273438 115.789062 88.140625 119.179688 L 90.296875 123.101562 C 90.4375 123.359375 90.300781 123.640625 89.941406 123.816406 L 86.558594 125.507812 C 81.625 127.976562 78.777344 131.386719 78.535156 135.109375 C 78.292969 138.835938 80.695312 142.355469 85.296875 145.019531 C 89.8125 147.632812 96.101562 149.132812 102.558594 149.132812 L 293.960938 149.132812 C 300.417969 149.132812 306.710938 147.632812 311.222656 145.019531 C 315.824219 142.355469 318.222656 138.835938 317.984375 135.109375 Z M 24.039062 103.960938 C 20.074219 103.960938 16.210938 103.039062 13.441406 101.4375 C 11.894531 100.542969 10.761719 99.488281 10.078125 98.34375 L 33.289062 98.34375 L 33.289062 93.070312 L 10.078125 93.070312 C 10.875 91.730469 12.277344 90.527344 14.207031 89.5625 L 17.59375 87.871094 C 20.691406 86.320312 21.902344 83.871094 20.671875 81.636719 L 18.515625 77.714844 C 15.730469 72.652344 20.171875 67.316406 28.839844 65.308594 L 35.992188 63.648438 C 39.378906 62.867188 41.835938 61.105469 42.402344 59.058594 L 43.582031 54.796875 C 45.015625 49.617188 53.382812 45.863281 62.613281 46.246094 L 70.214844 46.5625 C 73.871094 46.714844 77.457031 45.761719 79.578125 44.066406 L 84.117188 40.441406 C 89.5 36.144531 99.640625 34.886719 107.703125 37.519531 L 114.480469 39.734375 C 117.722656 40.792969 121.753906 40.792969 125 39.734375 L 131.777344 37.519531 C 134.46875 36.640625 137.390625 36.199219 140.289062 36.15625 L 137.964844 43.054688 L 147.117188 44.042969 L 149.355469 37.398438 C 151.667969 38.121094 153.734375 39.140625 155.363281 40.441406 L 159.90625 44.066406 C 162.023438 45.761719 165.609375 46.71875 169.265625 46.5625 L 176.867188 46.246094 C 186.097656 45.863281 194.464844 49.617188 195.898438 54.796875 L 197.078125 59.058594 C 197.644531 61.105469 200.101562 62.867188 203.488281 63.648438 L 210.640625 65.308594 C 215.09375 66.339844 218.554688 68.339844 220.367188 70.777344 C 215.382812 70.667969 210.285156 71.332031 205.636719 72.851562 L 198.863281 75.066406 C 198.492188 75.1875 198.027344 75.1875 197.65625 75.066406 L 190.878906 72.851562 C 178.625 68.847656 163.214844 70.757812 155.03125 77.289062 L 150.492188 80.914062 C 150.25 81.109375 149.835938 81.21875 149.417969 81.203125 L 141.820312 80.882812 C 127.777344 80.296875 115.078125 86.003906 112.898438 93.875 L 111.71875 98.140625 C 111.652344 98.375 111.371094 98.578125 110.980469 98.667969 L 103.832031 100.324219 C 100.136719 101.179688 96.953125 102.433594 94.371094 103.960938 Z M 304.558594 141.332031 C 301.789062 142.9375 297.925781 143.859375 293.960938 143.859375 L 264.273438 143.859375 L 264.273438 135.605469 L 254.960938 135.605469 L 254.960938 143.859375 L 246.265625 143.859375 L 246.265625 132.140625 L 236.945312 132.140625 L 236.945312 143.859375 L 102.558594 143.859375 C 98.59375 143.859375 94.730469 142.9375 91.960938 141.332031 C 89.160156 139.710938 87.695312 137.570312 87.84375 135.304688 C 87.992188 133.039062 89.726562 130.960938 92.726562 129.460938 L 96.109375 127.769531 C 99.210938 126.21875 100.421875 123.769531 99.191406 121.535156 L 97.035156 117.613281 C 94.25 112.546875 98.6875 107.214844 107.359375 105.203125 L 114.511719 103.546875 C 117.898438 102.761719 120.355469 101.003906 120.921875 98.957031 L 122.101562 94.691406 C 123.46875 89.757812 131.121094 86.117188 139.828125 86.117188 C 140.261719 86.117188 140.699219 86.125 141.136719 86.144531 L 148.734375 86.460938 C 152.394531 86.613281 155.976562 85.65625 158.097656 83.964844 L 162.636719 80.339844 C 164.015625 79.238281 165.710938 78.335938 167.601562 77.648438 L 171.792969 83.414062 L 180.410156 81.410156 L 176.519531 76.054688 C 179.804688 75.980469 183.164062 76.417969 186.222656 77.417969 L 193 79.632812 C 196.246094 80.691406 200.277344 80.691406 203.519531 79.632812 L 210.296875 77.417969 C 218.359375 74.785156 228.5 76.039062 233.886719 80.339844 L 238.425781 83.964844 C 240.542969 85.65625 244.132812 86.613281 247.785156 86.460938 L 255.386719 86.144531 C 264.625 85.757812 272.984375 89.511719 274.417969 94.691406 L 275.597656 98.957031 C 276.164062 101.003906 278.621094 102.761719 282.007812 103.546875 L 289.160156 105.203125 C 297.832031 107.214844 302.269531 112.546875 299.484375 117.613281 L 297.328125 121.535156 C 296.097656 123.769531 297.308594 126.21875 300.410156 127.769531 L 303.792969 129.460938 C 306.792969 130.960938 308.527344 133.039062 308.675781 135.304688 C 308.820312 137.570312 307.359375 139.710938 304.558594 141.332031 Z M 304.558594 141.332031 "/>
</g>
</svg>
