<svg id="Layer_1" height="512" viewBox="0 0 128 128" width="512" xmlns="http://www.w3.org/2000/svg" data-name="Layer 1"><rect fill="#fed943" height="80" rx="3.575" width="62.831" x="53.169" y="36"/><path d="m112.425 36h-27.84v80h27.841a3.575 3.575 0 0 0 3.574-3.575v-72.85a3.575 3.575 0 0 0 -3.575-3.575z" fill="#fbbe2c"/><path d="m74.96 27.25h19.25v8.75h-19.25z" fill="#0b607e"/><path d="m70.251 20.333h28.667v6.917h-28.667z" fill="#f72961"/><path d="m105.418 30.333h5.667v5.667h-5.667z" fill="#06465e"/><path d="m53.169 42.5h62.831v6.313h-62.831z" fill="#e7ffff"/><path d="m53.169 102.937h62.831v6.313h-62.831z" fill="#e7ffff"/><path d="m44 92.25h9.169v17h-9.169z" fill="#99dc4a"/><path d="m32.406 93.755v-72.129a9.626 9.626 0 0 0 -9.626-9.626h-10.78v6.313h9.519a4.575 4.575 0 0 1 4.575 4.575v72.918a8.1 8.1 0 0 0 8.1 8.1h9.806v-6.312h-7.755a3.838 3.838 0 0 1 -3.839-3.839z" fill="#f72961"/><rect fill="#99dc4a" height="22.481" rx="7.333" width="14.667" x="21.667" y="27.25"/><circle cx="83.889" cy="75.875" fill="#99dc4a" r="15.029"/><path d="m84.585 60.881v29.988a15.009 15.009 0 0 0 0-29.988z" fill="#5dc26e"/><path d="m84.585 27.25h9.625v8.75h-9.625z" fill="#06465e"/><path d="m84.585 20.333h14.333v6.917h-14.333z" fill="#c71944"/><path d="m87.059 76.1 3.477-3.477a1.75 1.75 0 0 0 -2.475-2.475l-3.477 3.477-3.477-3.477a1.75 1.75 0 0 0 -2.475 2.475l3.478 3.477-3.477 3.477a1.75 1.75 0 1 0 2.475 2.475l3.477-3.477 3.477 3.477a1.75 1.75 0 0 0 2.475-2.475z" fill="#06465e"/><path d="m36.333 42.4v-7.817a7.333 7.333 0 0 0 -7.333-7.333v22.481a7.333 7.333 0 0 0 7.333-7.331z" fill="#5dc26e"/></svg>