<svg height="512" viewBox="0 0 60 60" width="512" xmlns="http://www.w3.org/2000/svg"><g id="001---Gardening" fill="none"><g id="Icons" transform="translate(1 1)"><path id="Shape" d="m58 4.84c-.338 3.52-2 8.115-5.09 10.19-2.764 1.851-6.525 1.751-9.76.99-.4363152-.1001451-.8669356-.2236564-1.29-.37 0 0 .04-.5.19-1.3.42-2.21 1.63-6.69 4.9-8.89 1.2499244-.7999211 2.6726281-1.29015395 4.15-1.43 1.8951878-.17752033 3.8068042-.0252677 5.65.45.78.19 1.25.36 1.25.36z" fill="#60a917"/><path id="Shape" d="m58 4.84c-.338 3.52-2 8.115-5.09 10.19-2.1519316 1.2744162-4.6734415 1.7787182-7.15 1.43 1.474645-.1523186 2.8945404-.6415837 4.15-1.43 3.111-2.09 4.757-6.73 5.09-10.19-1.2639914-.40824977-2.568111-.67980168-3.89-.81 1.891873-.17787733 3.8002671-.02561184 5.64.45.78.19 1.25.36 1.25.36z" fill="#549414"/><path id="Shape" d="m38.14 15.65c-2.2206408.7379658-4.5688249 1.0136222-6.9.81-1.4777092-.1382852-2.9007714-.6286416-4.15-1.43-3.111-2.09-4.757-6.73-5.09-10.19 1.2670159-.40973843 2.5746113-.68131593 3.9-.81 2.4765979-.35009282 4.9985607.15429975 7.15 1.43 3.27 2.2 4.48 6.68 4.9 8.89.15.8.19 1.3.19 1.3z" fill="#549414"/><path id="Shape" d="m35.14 15.65c-1.2666557.4110979-2.5744004.6827064-3.9.81-1.4777092-.1382852-2.9007714-.6286416-4.15-1.43-3.111-2.09-4.757-6.73-5.09-10.19 1.2670159-.40973843 2.5746113-.68131593 3.9-.81 1.4773719.13984605 2.9000756.6300789 4.15 1.43 3.27 2.2 4.48 6.68 4.9 8.89.15.8.19 1.3.19 1.3z" fill="#60a917"/><path id="Shape" d="m53.24 34-2.99 23.13c-.0626778.4985375-.4875415.8719026-.99.87h-18.52c-.5024585.0019026-.9273222-.3714625-.99-.87l-2.99-23.13z" fill="#783e22"/><path id="Shape" d="m50.24 34-2.99 23.13c-.0626778.4985375-.4875415.8719026-.99.87h-15.52c-.5024585.0019026-.9273222-.3714625-.99-.87l-2.99-23.13z" fill="#a0522d"/><path id="Shape" d="m55.99 26.13-.91 7c-.0626778.4985375-.4875415.8719026-.99.87h-28.18c-.5024585.0019026-.9273222-.3714625-.99-.87l-.91-7c-.0373904-.2851752.0498177-.5726424.2393496-.7889769.189532-.2163344.4630348-.3405877.7506504-.3410231h30c.2876156.0004354.5611184.1246887.7506504.3410231.1895319.2163345.27674.5038017.2393496.7889769z" fill="#f57c00"/><path id="Shape" d="m52.99 26.13-.91 7c-.0626778.4985375-.4875415.8719026-.99.87h-25.18c-.5024585.0019026-.9273222-.3714625-.99-.87l-.91-7c-.0373904-.2851752.0498177-.5726424.2393496-.7889769.189532-.2163344.4630348-.3405877.7506504-.3410231h27c.2876156.0004354.5611184.1246887.7506504.3410231.1895319.2163345.27674.5038017.2393496.7889769z" fill="#ff9801"/><path id="Shape" d="m20 35.86c0 7.171-5.617 25.071-11.5 21.71-4.45-2.47-8.5-15.12-8.5-21.71 0-6.606 3.536-8.86 10-8.86 5.52 0 10 1.52 10 8.86z" fill="#545c60"/><path id="Shape" d="m17 35.86c0 6.59-4.05 19.24-8.5 21.71-4.45-2.47-8.5-15.12-8.5-21.71 0-6.65 3.68-8.52 8.48-8.82h.04c4.8.3 8.48 2.17 8.48 8.82z" fill="#7f8e94"/><path id="Shape" d="m8 21.46v5.63l-.9.12c1.235 13.082 4.566 13.068 5.8 0l-.9-.12v-5.63z" fill="#545c60"/><path id="Shape" d="m14 4v14c0 2.209139-1.790861 4-4 4s-4-1.790861-4-4v-14c0-2.209139 1.790861-4 4-4s4 1.790861 4 4z" fill="#6d4122"/><path id="Shape" d="m11 4v14c.0027682 1.6288493-.9877478 3.0948131-2.5 3.7-1.51225219-.6051869-2.50276824-2.0711507-2.5-3.7v-14c-.00276824-1.62884935.98774781-3.09481311 2.5-3.7 1.5117057.60586447 2.5019357 2.0714049 2.5 3.7z" fill="#91562d"/></g><g id="Outline" fill="#000"><path id="Shape" d="m27.535 16.856c3.15 2.11 7.557 2 11.217.957.6056287 1.5556295 1.0089287 3.1826089 1.2 4.841l.034 2.346h-13.986c-.5753574.0000832-1.1228095.2479482-1.5024705.6802602-.3796611.4323119-.5547506 1.0071898-.4805295 1.5777398l.91 7c.1281452.9858525.9609536 1.7279253 1.955 1.742l2.875 22.259c.1321885.995203.9800579 1.7392255 1.984 1.741h18.518c1.0049423-.0019749 1.8531838-.7476065 1.984-1.744l2.875-22.256c.9930478-.0138654 1.8254914-.7543357 1.955-1.739 1.02-7.839.91-6.9.91-7 .0751619-.5710282-.099499-1.1467403-.4792685-1.5797504-.3797695-.43301-.9277779-.6812794-1.5037315-.6812496h-14l.048-2.342c.182093-1.6609733.5856759-3.290103 1.2-4.844 3.658 1.046 8.067 1.152 11.216-.958 4.8-3.213 5.5-10.612 5.531-10.926.0013848-.06064934-.0033052-.12128499-.014-.181-.0059253-.16389513-.0575326-.32287343-.149-.459-.01-.015-.028-.026-.038-.04-.0841284-.12064863-.1986673-.21690275-.332-.279-.0399696-.02681408-.0821173-.05022944-.126-.07-.288-.1-7.12-2.495-11.94.732-4.335 2.9-5.326 9.2-5.5 10.63-.4109422.5632167-.7159145 1.1965425-.9 1.869-.1853057-.6747742-.4901314-1.3108438-.9-1.878-.175-1.442-1.171-7.724-5.5-10.621-4.812-3.227-11.644-.833-11.933-.733-.0438039.01992716-.085939.04333554-.126.07-.1331034.0624565-.2475572.15863911-.332.279-.01.014-.026.021-.036.036-.0924006.13729292-.1446918.29762942-.151.463-.0121032.05990727-.0181337.12088248-.018.182.032.314.736 7.713 5.535 10.926zm-3.135-8.875 12.33 8.256c-6.792 1.297-10.684-1.4-12.33-8.256zm25.859 50.019h-18.518l-2.841-22h24.2zm4.831-24h-28.18l-.91-7h30zm-9.813-17.766 12.329-8.255c-1.648 6.886-5.56 9.541-12.329 8.255zm11.308-9.978-12.325 8.252c1.64-6.808 5.48-9.551 12.325-8.252zm-23.094 1.044c2.532 1.7 3.717 5 4.25 7.214l-12.33-8.261c2.148-.411 5.54-.653 8.08 1.047z"/><path id="Shape" d="m31 29h-2c-.5522847 0-1 .4477153-1 1s.4477153 1 1 1h2c.5522847 0 1-.4477153 1-1s-.4477153-1-1-1z"/><path id="Shape" d="m35 29c-.5522847 0-1 .4477153-1 1s.4477153 1 1 1h7c.5522847 0 1-.4477153 1-1s-.4477153-1-1-1z"/><path id="Shape" d="m11 60c5.908 0 11-15.522 11-23.143 0-7.043-3.99-9.116-8-9.669v-4.214c1.2545681-.936398 1.9954393-2.4085092 2-3.974v-14c-.0000001-2.76142371-2.2385763-4.99999989-5-4.99999989-2.76142371 0-4.99999994 2.23857618-5 4.99999989v14c.00456067 1.5654908.74543191 3.037602 2 3.974v4.214c-4.01.553-8 2.626-8 9.669 0 7.621 5.092 23.143 11 23.143zm1.807-30.923c-.525 4.857-1.307 7.251-1.807 7.838-.5-.587-1.282-2.981-1.807-7.838 1.202465-.1029996 2.411535-.1029996 3.614 0zm-4.807-24.077c.00000003-1.65685422 1.34314578-2.99999994 3-2.99999994 1.6568542 0 3 1.34314572 3 2.99999994v14c0 1.6568542-1.3431458 3-3 3-1.65685425 0-3-1.3431458-3-3zm2 18.9c.6598826.1345018 1.3401174.1345018 2 0v3.12c-.691-.025-1.291-.026-2 0zm-2.787 5.474c1.04 9.626 2.954 9.626 3.787 9.626s2.747 0 3.787-9.626c3.65.843 5.213 3.175 5.213 7.483 0 7.655-5.2 21.143-9 21.143s-9-13.488-9-21.143c0-4.308 1.563-6.64 5.213-7.483z"/><circle id="Oval" cx="11" cy="5" r="1"/></g></g></svg>