<?xml version="1.0" encoding="UTF-8"?>
<svg xmlns="http://www.w3.org/2000/svg" xmlns:xlink="http://www.w3.org/1999/xlink" width="150pt" height="150pt" viewBox="0 0 150 150" version="1.1">
<g id="surface1">
<path style=" stroke:none;fill-rule:nonzero;fill:rgb(26.666667%,36.862745%,62.745098%);fill-opacity:1;" d="M 146.777344 78.222656 C 146.777344 117.863281 114.640625 150 75 150 C 35.359375 150 3.222656 117.863281 3.222656 78.222656 C 3.222656 38.582031 35.359375 6.445312 75 6.445312 C 114.640625 6.445312 146.777344 38.582031 146.777344 78.222656 Z M 146.777344 78.222656 "/>
<path style=" stroke:none;fill-rule:nonzero;fill:rgb(100%,68.627451%,6.27451%);fill-opacity:1;" d="M 29.507812 123.527344 C 28.703125 123.527344 28.042969 122.871094 28.042969 122.0625 L 28.042969 20.875 L 18.351562 20.875 C 17.542969 20.875 16.886719 21.53125 16.886719 22.339844 L 16.886719 120.347656 C 20.800781 125.742188 25.445312 130.570312 30.679688 134.6875 L 111.65625 134.6875 C 112.460938 134.6875 113.121094 134.027344 113.121094 133.222656 L 113.121094 123.527344 Z M 29.507812 123.527344 "/>
<path style=" stroke:none;fill-rule:nonzero;fill:rgb(93.72549%,58.823529%,7.843137%);fill-opacity:1;" d="M 22.453125 22.339844 C 22.453125 21.53125 23.109375 20.875 23.917969 20.875 L 18.351562 20.875 C 17.542969 20.875 16.886719 21.53125 16.886719 22.339844 L 16.886719 120.347656 C 18.605469 122.714844 20.464844 124.976562 22.453125 127.113281 Z M 22.453125 22.339844 "/>
<path style=" stroke:none;fill-rule:nonzero;fill:rgb(100%,58.431373%,9.411765%);fill-opacity:1;" d="M 39.175781 112.980469 C 38.371094 112.980469 37.710938 112.324219 37.710938 111.515625 L 37.710938 10.546875 L 28.675781 10.546875 C 27.871094 10.546875 27.210938 11.207031 27.210938 12.011719 L 27.210938 122.894531 C 27.210938 123.699219 27.871094 124.359375 28.675781 124.359375 L 121.984375 124.359375 C 122.789062 124.359375 123.449219 123.699219 123.449219 122.894531 L 123.449219 112.980469 Z M 39.175781 112.980469 "/>
<path style=" stroke:none;fill-rule:nonzero;fill:rgb(93.72549%,51.372549%,9.411765%);fill-opacity:1;" d="M 32.484375 122.894531 L 32.484375 12.011719 C 32.484375 11.207031 33.144531 10.546875 33.949219 10.546875 L 28.675781 10.546875 C 27.871094 10.546875 27.210938 11.207031 27.210938 12.011719 L 27.210938 122.894531 C 27.210938 123.699219 27.871094 124.359375 28.675781 124.359375 L 33.949219 124.359375 C 33.144531 124.359375 32.484375 123.699219 32.484375 122.894531 Z M 32.484375 122.894531 "/>
<path style=" stroke:none;fill-rule:nonzero;fill:rgb(85.098039%,91.764706%,98.823529%);fill-opacity:1;" d="M 133.113281 112.347656 C 133.113281 113.152344 132.457031 113.8125 131.648438 113.8125 L 38.34375 113.8125 C 37.539062 113.8125 36.878906 113.152344 36.878906 112.347656 L 36.878906 1.464844 C 36.878906 0.660156 37.539062 0 38.34375 0 L 131.648438 0 C 132.457031 0 133.113281 0.660156 133.113281 1.464844 Z M 133.113281 112.347656 "/>
<path style=" stroke:none;fill-rule:nonzero;fill:rgb(76.470588%,86.666667%,95.686275%);fill-opacity:1;" d="M 42.695312 112.347656 L 42.695312 1.464844 C 42.695312 0.660156 43.351562 0 44.160156 0 L 38.34375 0 C 37.539062 0 36.878906 0.660156 36.878906 1.464844 L 36.878906 112.347656 C 36.878906 113.152344 37.539062 113.8125 38.34375 113.8125 L 44.160156 113.8125 C 43.351562 113.8125 42.695312 113.152344 42.695312 112.347656 Z M 42.695312 112.347656 "/>
<path style=" stroke:none;fill-rule:nonzero;fill:rgb(85.882353%,44.705882%,17.254902%);fill-opacity:1;" d="M 121.609375 14.882812 L 101.230469 14.882812 C 100.015625 14.882812 99.03125 13.898438 99.03125 12.683594 C 99.03125 11.46875 100.015625 10.488281 101.230469 10.488281 L 121.609375 10.488281 C 122.820312 10.488281 123.804688 11.46875 123.804688 12.683594 C 123.804688 13.898438 122.820312 14.882812 121.609375 14.882812 Z M 121.609375 14.882812 "/>
<path style=" stroke:none;fill-rule:nonzero;fill:rgb(85.882353%,44.705882%,17.254902%);fill-opacity:1;" d="M 121.609375 22.351562 L 101.230469 22.351562 C 100.015625 22.351562 99.03125 21.367188 99.03125 20.152344 C 99.03125 18.941406 100.015625 17.957031 101.230469 17.957031 L 121.609375 17.957031 C 122.820312 17.957031 123.804688 18.941406 123.804688 20.152344 C 123.804688 21.367188 122.820312 22.351562 121.609375 22.351562 Z M 121.609375 22.351562 "/>
<path style=" stroke:none;fill-rule:nonzero;fill:rgb(85.882353%,44.705882%,17.254902%);fill-opacity:1;" d="M 121.609375 29.820312 L 101.230469 29.820312 C 100.015625 29.820312 99.03125 28.835938 99.03125 27.625 C 99.03125 26.410156 100.015625 25.425781 101.230469 25.425781 L 121.609375 25.425781 C 122.820312 25.425781 123.804688 26.410156 123.804688 27.625 C 123.804688 28.839844 122.820312 29.820312 121.609375 29.820312 Z M 121.609375 29.820312 "/>
<path style=" stroke:none;fill-rule:nonzero;fill:rgb(85.882353%,44.705882%,17.254902%);fill-opacity:1;" d="M 121.609375 37.292969 L 101.230469 37.292969 C 100.015625 37.292969 99.03125 36.308594 99.03125 35.09375 C 99.03125 33.882812 100.015625 32.898438 101.230469 32.898438 L 121.609375 32.898438 C 122.820312 32.898438 123.804688 33.882812 123.804688 35.09375 C 123.804688 36.308594 122.820312 37.292969 121.609375 37.292969 Z M 121.609375 37.292969 "/>
<path style=" stroke:none;fill-rule:nonzero;fill:rgb(32.156863%,73.333333%,93.72549%);fill-opacity:1;" d="M 83.613281 89.4375 L 49.289062 89.4375 C 48.074219 89.4375 47.089844 88.453125 47.089844 87.242188 C 47.089844 86.027344 48.074219 85.042969 49.289062 85.042969 L 83.613281 85.042969 C 84.824219 85.042969 85.808594 86.027344 85.808594 87.242188 C 85.808594 88.453125 84.824219 89.4375 83.613281 89.4375 Z M 83.613281 89.4375 "/>
<path style=" stroke:none;fill-rule:nonzero;fill:rgb(32.156863%,73.333333%,93.72549%);fill-opacity:1;" d="M 83.613281 96.90625 L 49.289062 96.90625 C 48.074219 96.90625 47.089844 95.925781 47.089844 94.710938 C 47.089844 93.496094 48.074219 92.511719 49.289062 92.511719 L 83.613281 92.511719 C 84.824219 92.511719 85.808594 93.496094 85.808594 94.710938 C 85.808594 95.925781 84.824219 96.90625 83.613281 96.90625 Z M 83.613281 96.90625 "/>
<path style=" stroke:none;fill-rule:nonzero;fill:rgb(32.156863%,73.333333%,93.72549%);fill-opacity:1;" d="M 83.613281 104.378906 L 49.289062 104.378906 C 48.074219 104.378906 47.089844 103.394531 47.089844 102.179688 C 47.089844 100.96875 48.074219 99.984375 49.289062 99.984375 L 83.613281 99.984375 C 84.824219 99.984375 85.808594 100.96875 85.808594 102.179688 C 85.808594 103.394531 84.824219 104.378906 83.613281 104.378906 Z M 83.613281 104.378906 "/>
<path style=" stroke:none;fill-rule:nonzero;fill:rgb(99.607843%,21.568627%,27.058824%);fill-opacity:1;" d="M 121.609375 50.328125 L 90.339844 50.328125 C 89.125 50.328125 88.140625 49.34375 88.140625 48.132812 C 88.140625 46.917969 89.125 45.933594 90.339844 45.933594 L 121.609375 45.933594 C 122.820312 45.933594 123.804688 46.917969 123.804688 48.132812 C 123.804688 49.34375 122.820312 50.328125 121.609375 50.328125 Z M 121.609375 50.328125 "/>
<path style=" stroke:none;fill-rule:nonzero;fill:rgb(99.607843%,21.568627%,27.058824%);fill-opacity:1;" d="M 121.609375 57.800781 L 90.339844 57.800781 C 89.125 57.800781 88.140625 56.816406 88.140625 55.601562 C 88.140625 54.386719 89.125 53.40625 90.339844 53.40625 L 121.609375 53.40625 C 122.820312 53.40625 123.804688 54.386719 123.804688 55.601562 C 123.804688 56.816406 122.820312 57.800781 121.609375 57.800781 Z M 121.609375 57.800781 "/>
<path style=" stroke:none;fill-rule:nonzero;fill:rgb(99.607843%,21.568627%,27.058824%);fill-opacity:1;" d="M 121.609375 65.269531 L 90.339844 65.269531 C 89.125 65.269531 88.140625 64.285156 88.140625 63.070312 C 88.140625 61.859375 89.125 60.875 90.339844 60.875 L 121.609375 60.875 C 122.820312 60.875 123.804688 61.859375 123.804688 63.070312 C 123.804688 64.285156 122.820312 65.269531 121.609375 65.269531 Z M 121.609375 65.269531 "/>
<path style=" stroke:none;fill-rule:nonzero;fill:rgb(99.607843%,21.568627%,27.058824%);fill-opacity:1;" d="M 121.609375 72.738281 L 90.339844 72.738281 C 89.125 72.738281 88.140625 71.753906 88.140625 70.542969 C 88.140625 69.328125 89.125 68.34375 90.339844 68.34375 L 121.609375 68.34375 C 122.820312 68.34375 123.804688 69.328125 123.804688 70.542969 C 123.804688 71.753906 122.820312 72.738281 121.609375 72.738281 Z M 121.609375 72.738281 "/>
<path style=" stroke:none;fill-rule:nonzero;fill:rgb(99.607843%,21.568627%,27.058824%);fill-opacity:1;" d="M 45.34375 63.210938 L 53.910156 63.210938 C 53.910156 58.476562 57.746094 54.640625 62.476562 54.640625 L 62.476562 46.074219 C 53.015625 46.074219 45.34375 53.746094 45.34375 63.210938 Z M 45.34375 63.210938 "/>
<path style=" stroke:none;fill-rule:nonzero;fill:rgb(56.862745%,87.843137%,90.980392%);fill-opacity:1;" d="M 66.820312 41.730469 L 66.820312 50.296875 C 71.554688 50.296875 75.386719 54.132812 75.386719 58.863281 L 83.957031 58.863281 C 83.957031 49.402344 76.285156 41.730469 66.820312 41.730469 Z M 66.820312 41.730469 "/>
<path style=" stroke:none;fill-rule:nonzero;fill:rgb(100%,68.627451%,6.27451%);fill-opacity:1;" d="M 71.042969 63.210938 C 71.042969 67.941406 67.207031 71.777344 62.476562 71.777344 C 57.746094 71.777344 53.910156 67.941406 53.910156 63.210938 L 45.34375 63.210938 C 45.34375 72.671875 53.015625 80.34375 62.476562 80.34375 C 71.9375 80.34375 79.609375 72.671875 79.609375 63.210938 Z M 71.042969 63.210938 "/>
<path style=" stroke:none;fill-rule:nonzero;fill:rgb(100%,68.627451%,6.27451%);fill-opacity:1;" d="M 55.183594 33.726562 L 55.183594 13.269531 C 55.183594 12.785156 54.789062 12.390625 54.304688 12.390625 L 48.976562 12.390625 C 48.496094 12.390625 48.097656 12.785156 48.097656 13.269531 L 48.097656 33.726562 Z M 55.183594 33.726562 "/>
<path style=" stroke:none;fill-rule:nonzero;fill:rgb(99.607843%,21.568627%,27.058824%);fill-opacity:1;" d="M 66.644531 33.726562 L 66.644531 18.835938 C 66.644531 18.351562 66.246094 17.957031 65.765625 17.957031 L 60.4375 17.957031 C 59.953125 17.957031 59.558594 18.351562 59.558594 18.835938 L 59.558594 33.726562 Z M 66.644531 33.726562 "/>
<path style=" stroke:none;fill-rule:nonzero;fill:rgb(21.568627%,76.862745%,47.843137%);fill-opacity:1;" d="M 78.101562 33.726562 L 78.101562 25.574219 C 78.101562 25.089844 77.707031 24.695312 77.222656 24.695312 L 71.898438 24.695312 C 71.414062 24.695312 71.019531 25.089844 71.019531 25.574219 L 71.019531 33.726562 Z M 78.101562 33.726562 "/>
<path style=" stroke:none;fill-rule:nonzero;fill:rgb(56.862745%,87.843137%,90.980392%);fill-opacity:1;" d="M 89.5625 33.726562 L 89.5625 13.269531 C 89.5625 12.785156 89.167969 12.390625 88.683594 12.390625 L 83.359375 12.390625 C 82.875 12.390625 82.480469 12.785156 82.480469 13.269531 L 82.480469 33.726562 Z M 89.5625 33.726562 "/>
<path style=" stroke:none;fill-rule:nonzero;fill:rgb(99.607843%,21.568627%,27.058824%);fill-opacity:1;" d="M 111.207031 93.664062 C 111.207031 93.179688 111.601562 92.785156 112.085938 92.785156 L 116.058594 92.785156 L 116.058594 82.953125 C 116.058594 82.148438 115.402344 81.488281 114.59375 81.488281 L 101.375 81.488281 C 100.570312 81.488281 99.910156 82.148438 99.910156 82.953125 L 99.910156 96.171875 C 99.910156 96.976562 100.570312 97.636719 101.375 97.636719 L 111.207031 97.636719 Z M 111.207031 93.664062 "/>
<path style=" stroke:none;fill-rule:nonzero;fill:rgb(21.568627%,76.862745%,47.843137%);fill-opacity:1;" d="M 121.609375 101.71875 C 121.609375 102.527344 120.949219 103.183594 120.144531 103.183594 L 112.085938 103.183594 C 111.28125 103.183594 110.621094 102.527344 110.621094 101.71875 L 110.621094 93.664062 C 110.621094 92.859375 111.28125 92.199219 112.085938 92.199219 L 120.144531 92.199219 C 120.949219 92.199219 121.609375 92.859375 121.609375 93.664062 Z M 121.609375 101.71875 "/>
<path style=" stroke:none;fill-rule:nonzero;fill:rgb(32.156863%,73.333333%,93.72549%);fill-opacity:1;" d="M 91.078125 37.292969 L 46.585938 37.292969 C 45.371094 37.292969 44.386719 36.308594 44.386719 35.09375 C 44.386719 33.882812 45.371094 32.898438 46.585938 32.898438 L 91.078125 32.898438 C 92.292969 32.898438 93.273438 33.882812 93.273438 35.09375 C 93.273438 36.308594 92.292969 37.292969 91.078125 37.292969 Z M 91.078125 37.292969 "/>
</g>
</svg>
