<?xml version="1.0" encoding="UTF-8"?>
<svg xmlns="http://www.w3.org/2000/svg" xmlns:xlink="http://www.w3.org/1999/xlink" width="80pt" height="80pt" viewBox="0 0 80 80" version="1.1">
<g id="surface1">
<path style=" stroke:none;fill-rule:nonzero;fill:rgb(26.666667%,36.862745%,62.745098%);fill-opacity:1;" d="M 78.074219 41.609375 C 78.074219 62.691406 60.980469 79.789062 39.894531 79.789062 C 18.808594 79.789062 1.714844 62.691406 1.714844 41.609375 C 1.714844 20.523438 18.808594 3.429688 39.894531 3.429688 C 60.980469 3.429688 78.074219 20.523438 78.074219 41.609375 Z M 78.074219 41.609375 "/>
<path style=" stroke:none;fill-rule:nonzero;fill:rgb(100%,68.627451%,6.27451%);fill-opacity:1;" d="M 15.695312 65.707031 C 15.269531 65.707031 14.917969 65.355469 14.917969 64.925781 L 14.917969 11.105469 L 9.761719 11.105469 C 9.332031 11.105469 8.980469 11.453125 8.980469 11.882812 L 8.980469 64.015625 C 11.0625 66.882812 13.535156 69.453125 16.320312 71.640625 L 59.390625 71.640625 C 59.820312 71.640625 60.171875 71.292969 60.171875 70.863281 L 60.171875 65.707031 Z M 15.695312 65.707031 "/>
<path style=" stroke:none;fill-rule:nonzero;fill:rgb(93.72549%,58.823529%,7.843137%);fill-opacity:1;" d="M 11.941406 11.882812 C 11.941406 11.453125 12.292969 11.105469 12.722656 11.105469 L 9.761719 11.105469 C 9.332031 11.105469 8.980469 11.453125 8.980469 11.882812 L 8.980469 64.015625 C 9.898438 65.273438 10.886719 66.476562 11.941406 67.613281 Z M 11.941406 11.882812 "/>
<path style=" stroke:none;fill-rule:nonzero;fill:rgb(100%,58.431373%,9.411765%);fill-opacity:1;" d="M 20.839844 60.097656 C 20.410156 60.097656 20.058594 59.746094 20.058594 59.316406 L 20.058594 5.609375 L 15.253906 5.609375 C 14.824219 5.609375 14.472656 5.960938 14.472656 6.390625 L 14.472656 65.371094 C 14.472656 65.796875 14.824219 66.148438 15.253906 66.148438 L 64.886719 66.148438 C 65.3125 66.148438 65.664062 65.796875 65.664062 65.371094 L 65.664062 60.097656 Z M 20.839844 60.097656 "/>
<path style=" stroke:none;fill-rule:nonzero;fill:rgb(93.72549%,51.372549%,9.411765%);fill-opacity:1;" d="M 17.277344 65.371094 L 17.277344 6.390625 C 17.277344 5.960938 17.628906 5.609375 18.058594 5.609375 L 15.253906 5.609375 C 14.824219 5.609375 14.472656 5.960938 14.472656 6.390625 L 14.472656 65.371094 C 14.472656 65.796875 14.824219 66.148438 15.253906 66.148438 L 18.058594 66.148438 C 17.628906 66.148438 17.277344 65.796875 17.277344 65.371094 Z M 17.277344 65.371094 "/>
<path style=" stroke:none;fill-rule:nonzero;fill:rgb(85.098039%,91.764706%,98.823529%);fill-opacity:1;" d="M 70.804688 59.757812 C 70.804688 60.1875 70.457031 60.539062 70.027344 60.539062 L 20.394531 60.539062 C 19.96875 60.539062 19.617188 60.1875 19.617188 59.757812 L 19.617188 0.777344 C 19.617188 0.351562 19.96875 0 20.394531 0 L 70.027344 0 C 70.457031 0 70.804688 0.351562 70.804688 0.777344 Z M 70.804688 59.757812 "/>
<path style=" stroke:none;fill-rule:nonzero;fill:rgb(76.470588%,86.666667%,95.686275%);fill-opacity:1;" d="M 22.710938 59.757812 L 22.710938 0.777344 C 22.710938 0.351562 23.058594 0 23.488281 0 L 20.394531 0 C 19.96875 0 19.617188 0.351562 19.617188 0.777344 L 19.617188 59.757812 C 19.617188 60.1875 19.96875 60.539062 20.394531 60.539062 L 23.488281 60.539062 C 23.058594 60.539062 22.710938 60.1875 22.710938 59.757812 Z M 22.710938 59.757812 "/>
<path style=" stroke:none;fill-rule:nonzero;fill:rgb(85.882353%,44.705882%,17.254902%);fill-opacity:1;" d="M 64.6875 7.917969 L 53.847656 7.917969 C 53.199219 7.917969 52.675781 7.394531 52.675781 6.746094 C 52.675781 6.101562 53.199219 5.578125 53.847656 5.578125 L 64.6875 5.578125 C 65.328125 5.578125 65.855469 6.101562 65.855469 6.746094 C 65.855469 7.394531 65.328125 7.917969 64.6875 7.917969 Z M 64.6875 7.917969 "/>
<path style=" stroke:none;fill-rule:nonzero;fill:rgb(85.882353%,44.705882%,17.254902%);fill-opacity:1;" d="M 64.6875 11.890625 L 53.847656 11.890625 C 53.199219 11.890625 52.675781 11.367188 52.675781 10.71875 C 52.675781 10.074219 53.199219 9.550781 53.847656 9.550781 L 64.6875 9.550781 C 65.328125 9.550781 65.855469 10.074219 65.855469 10.71875 C 65.855469 11.367188 65.328125 11.890625 64.6875 11.890625 Z M 64.6875 11.890625 "/>
<path style=" stroke:none;fill-rule:nonzero;fill:rgb(85.882353%,44.705882%,17.254902%);fill-opacity:1;" d="M 64.6875 15.863281 L 53.847656 15.863281 C 53.199219 15.863281 52.675781 15.339844 52.675781 14.695312 C 52.675781 14.046875 53.199219 13.523438 53.847656 13.523438 L 64.6875 13.523438 C 65.328125 13.523438 65.855469 14.046875 65.855469 14.695312 C 65.855469 15.339844 65.328125 15.863281 64.6875 15.863281 Z M 64.6875 15.863281 "/>
<path style=" stroke:none;fill-rule:nonzero;fill:rgb(85.882353%,44.705882%,17.254902%);fill-opacity:1;" d="M 64.6875 19.835938 L 53.847656 19.835938 C 53.199219 19.835938 52.675781 19.3125 52.675781 18.667969 C 52.675781 18.023438 53.199219 17.5 53.847656 17.5 L 64.6875 17.5 C 65.328125 17.5 65.855469 18.023438 65.855469 18.667969 C 65.855469 19.3125 65.328125 19.835938 64.6875 19.835938 Z M 64.6875 19.835938 "/>
<path style=" stroke:none;fill-rule:nonzero;fill:rgb(32.156863%,73.333333%,93.72549%);fill-opacity:1;" d="M 44.476562 47.574219 L 26.21875 47.574219 C 25.570312 47.574219 25.046875 47.050781 25.046875 46.40625 C 25.046875 45.757812 25.570312 45.234375 26.21875 45.234375 L 44.476562 45.234375 C 45.121094 45.234375 45.644531 45.757812 45.644531 46.40625 C 45.644531 47.050781 45.121094 47.574219 44.476562 47.574219 Z M 44.476562 47.574219 "/>
<path style=" stroke:none;fill-rule:nonzero;fill:rgb(32.156863%,73.333333%,93.72549%);fill-opacity:1;" d="M 44.476562 51.546875 L 26.21875 51.546875 C 25.570312 51.546875 25.046875 51.023438 25.046875 50.378906 C 25.046875 49.730469 25.570312 49.207031 26.21875 49.207031 L 44.476562 49.207031 C 45.121094 49.207031 45.644531 49.730469 45.644531 50.378906 C 45.644531 51.023438 45.121094 51.546875 44.476562 51.546875 Z M 44.476562 51.546875 "/>
<path style=" stroke:none;fill-rule:nonzero;fill:rgb(32.156863%,73.333333%,93.72549%);fill-opacity:1;" d="M 44.476562 55.519531 L 26.21875 55.519531 C 25.570312 55.519531 25.046875 54.996094 25.046875 54.351562 C 25.046875 53.707031 25.570312 53.183594 26.21875 53.183594 L 44.476562 53.183594 C 45.121094 53.183594 45.644531 53.707031 45.644531 54.351562 C 45.644531 54.996094 45.121094 55.519531 44.476562 55.519531 Z M 44.476562 55.519531 "/>
<path style=" stroke:none;fill-rule:nonzero;fill:rgb(99.607843%,21.568627%,27.058824%);fill-opacity:1;" d="M 64.6875 26.769531 L 48.054688 26.769531 C 47.40625 26.769531 46.882812 26.246094 46.882812 25.601562 C 46.882812 24.957031 47.40625 24.433594 48.054688 24.433594 L 64.6875 24.433594 C 65.328125 24.433594 65.855469 24.957031 65.855469 25.601562 C 65.855469 26.246094 65.328125 26.769531 64.6875 26.769531 Z M 64.6875 26.769531 "/>
<path style=" stroke:none;fill-rule:nonzero;fill:rgb(99.607843%,21.568627%,27.058824%);fill-opacity:1;" d="M 64.6875 30.746094 L 48.054688 30.746094 C 47.40625 30.746094 46.882812 30.222656 46.882812 29.574219 C 46.882812 28.929688 47.40625 28.40625 48.054688 28.40625 L 64.6875 28.40625 C 65.328125 28.40625 65.855469 28.929688 65.855469 29.574219 C 65.855469 30.222656 65.328125 30.746094 64.6875 30.746094 Z M 64.6875 30.746094 "/>
<path style=" stroke:none;fill-rule:nonzero;fill:rgb(99.607843%,21.568627%,27.058824%);fill-opacity:1;" d="M 64.6875 34.71875 L 48.054688 34.71875 C 47.40625 34.71875 46.882812 34.195312 46.882812 33.546875 C 46.882812 32.902344 47.40625 32.378906 48.054688 32.378906 L 64.6875 32.378906 C 65.328125 32.378906 65.855469 32.902344 65.855469 33.546875 C 65.855469 34.195312 65.328125 34.71875 64.6875 34.71875 Z M 64.6875 34.71875 "/>
<path style=" stroke:none;fill-rule:nonzero;fill:rgb(99.607843%,21.568627%,27.058824%);fill-opacity:1;" d="M 64.6875 38.691406 L 48.054688 38.691406 C 47.40625 38.691406 46.882812 38.167969 46.882812 37.523438 C 46.882812 36.875 47.40625 36.351562 48.054688 36.351562 L 64.6875 36.351562 C 65.328125 36.351562 65.855469 36.875 65.855469 37.523438 C 65.855469 38.167969 65.328125 38.691406 64.6875 38.691406 Z M 64.6875 38.691406 "/>
<path style=" stroke:none;fill-rule:nonzero;fill:rgb(99.607843%,21.568627%,27.058824%);fill-opacity:1;" d="M 24.117188 33.621094 L 28.675781 33.621094 C 28.675781 31.105469 30.714844 29.0625 33.230469 29.0625 L 33.230469 24.507812 C 28.199219 24.507812 24.117188 28.589844 24.117188 33.621094 Z M 24.117188 33.621094 "/>
<path style=" stroke:none;fill-rule:nonzero;fill:rgb(56.862745%,87.843137%,90.980392%);fill-opacity:1;" d="M 35.542969 22.195312 L 35.542969 26.753906 C 38.0625 26.753906 40.097656 28.792969 40.097656 31.308594 L 44.65625 31.308594 C 44.65625 26.277344 40.578125 22.195312 35.542969 22.195312 Z M 35.542969 22.195312 "/>
<path style=" stroke:none;fill-rule:nonzero;fill:rgb(100%,68.627451%,6.27451%);fill-opacity:1;" d="M 37.789062 33.621094 C 37.789062 36.140625 35.75 38.179688 33.230469 38.179688 C 30.714844 38.179688 28.675781 36.140625 28.675781 33.621094 L 24.117188 33.621094 C 24.117188 38.65625 28.199219 42.734375 33.230469 42.734375 C 38.265625 42.734375 42.34375 38.65625 42.34375 33.621094 Z M 37.789062 33.621094 "/>
<path style=" stroke:none;fill-rule:nonzero;fill:rgb(100%,68.627451%,6.27451%);fill-opacity:1;" d="M 29.351562 17.941406 L 29.351562 7.058594 C 29.351562 6.800781 29.144531 6.589844 28.886719 6.589844 L 26.050781 6.589844 C 25.796875 6.589844 25.582031 6.800781 25.582031 7.058594 L 25.582031 17.941406 Z M 29.351562 17.941406 "/>
<path style=" stroke:none;fill-rule:nonzero;fill:rgb(99.607843%,21.568627%,27.058824%);fill-opacity:1;" d="M 35.449219 17.941406 L 35.449219 10.019531 C 35.449219 9.761719 35.238281 9.550781 34.980469 9.550781 L 32.148438 9.550781 C 31.890625 9.550781 31.679688 9.761719 31.679688 10.019531 L 31.679688 17.941406 Z M 35.449219 17.941406 "/>
<path style=" stroke:none;fill-rule:nonzero;fill:rgb(21.568627%,76.862745%,47.843137%);fill-opacity:1;" d="M 41.542969 17.941406 L 41.542969 13.601562 C 41.542969 13.34375 41.332031 13.136719 41.074219 13.136719 L 38.242188 13.136719 C 37.984375 13.136719 37.777344 13.34375 37.777344 13.601562 L 37.777344 17.941406 Z M 41.542969 17.941406 "/>
<path style=" stroke:none;fill-rule:nonzero;fill:rgb(56.862745%,87.843137%,90.980392%);fill-opacity:1;" d="M 47.640625 17.941406 L 47.640625 7.058594 C 47.640625 6.800781 47.429688 6.589844 47.171875 6.589844 L 44.339844 6.589844 C 44.082031 6.589844 43.871094 6.800781 43.871094 7.058594 L 43.871094 17.941406 Z M 47.640625 17.941406 "/>
<path style=" stroke:none;fill-rule:nonzero;fill:rgb(99.607843%,21.568627%,27.058824%);fill-opacity:1;" d="M 59.152344 49.820312 C 59.152344 49.5625 59.363281 49.355469 59.621094 49.355469 L 61.734375 49.355469 L 61.734375 44.125 C 61.734375 43.695312 61.382812 43.34375 60.953125 43.34375 L 53.921875 43.34375 C 53.496094 43.34375 53.144531 43.695312 53.144531 44.125 L 53.144531 51.15625 C 53.144531 51.582031 53.496094 51.933594 53.921875 51.933594 L 59.152344 51.933594 Z M 59.152344 49.820312 "/>
<path style=" stroke:none;fill-rule:nonzero;fill:rgb(21.568627%,76.862745%,47.843137%);fill-opacity:1;" d="M 64.6875 54.105469 C 64.6875 54.535156 64.335938 54.886719 63.90625 54.886719 L 59.621094 54.886719 C 59.191406 54.886719 58.839844 54.535156 58.839844 54.105469 L 58.839844 49.820312 C 58.839844 49.394531 59.191406 49.042969 59.621094 49.042969 L 63.90625 49.042969 C 64.335938 49.042969 64.6875 49.394531 64.6875 49.820312 Z M 64.6875 54.105469 "/>
<path style=" stroke:none;fill-rule:nonzero;fill:rgb(32.156863%,73.333333%,93.72549%);fill-opacity:1;" d="M 48.445312 19.835938 L 24.78125 19.835938 C 24.132812 19.835938 23.609375 19.3125 23.609375 18.667969 C 23.609375 18.023438 24.132812 17.5 24.78125 17.5 L 48.445312 17.5 C 49.09375 17.5 49.613281 18.023438 49.613281 18.667969 C 49.613281 19.3125 49.09375 19.835938 48.445312 19.835938 Z M 48.445312 19.835938 "/>
</g>
</svg>
